<svg width="200" height="150" viewBox="0 0 800 600" fill="none" xmlns="http://www.w3.org/2000/svg">
<path opacity="0.2" d="M115.689 123.258C145.489 108.931 158.033 73.1586 143.706 43.3584C129.379 13.5583 21.463 65.4407 35.7899 95.2408C50.1168 125.041 85.8888 137.585 115.689 123.258Z" fill="#60A5FA" stroke="#E7EBF4" stroke-width="1"></path>
<path fill-rule="evenodd" clip-rule="evenodd" d="M554.056 227.38C575.245 227.38 592.423 210.202 592.423 189.012C592.423 167.822 575.245 150.645 554.056 150.645C532.866 150.645 515.688 167.822 515.688 189.012C515.688 210.202 532.866 227.38 554.056 227.38ZM593.439 189.012C593.439 210.763 575.806 228.395 554.056 228.395C532.305 228.395 514.672 210.763 514.672 189.012C514.672 167.261 532.305 149.629 554.056 149.629C575.806 149.629 593.439 167.261 593.439 189.012Z" fill="none" stroke="#E7EBF4" stroke-width="1"></path>
<path fill-rule="evenodd" clip-rule="evenodd" d="M369.159 78.0535L369.145 78.0514C350.163 75.2413 331.907 80.5882 317.875 93.1218C208.37 190.939 155.654 281.327 143.409 355.391C131.174 429.391 159.317 487.155 211.753 520.019C316.735 585.817 519.797 552.079 692.456 346.7C708.06 327.262 711.785 301.973 702.022 279.996C692.258 258.019 671.034 244.061 646.74 242.689C646.738 242.689 646.735 242.689 646.733 242.689L494.634 236.477L413.87 107.234L413.869 107.233C403.761 90.9986 387.564 80.2493 369.173 78.0552L369.159 78.0535ZM646.79 241.675C671.444 243.065 693.022 257.236 702.95 279.584C712.879 301.932 709.074 327.627 693.241 347.345C347.611 758.486 -121.188 483.958 317.199 92.3644C331.461 79.6245 350.022 74.1936 369.294 77.0467C388.011 79.2797 404.472 90.2184 414.731 106.696L495.211 235.484L646.79 241.675Z" fill="#2563EB" stroke="#E7EBF4" stroke-width="1"></path>
<path opacity="0.4" d="M349.085 103.997C363.347 91.2573 381.908 85.8264 401.18 88.6795C419.897 90.9126 436.358 101.851 446.617 118.329L527.097 247.117L678.676 253.307C703.33 254.697 724.907 268.869 734.836 291.217C744.764 313.564 740.96 339.26 725.127 358.978C379.497 770.119 -89.302 495.59 349.085 103.997Z" fill="none" stroke="#E7EBF4" stroke-width="1"></path>
<path opacity="0.7" d="M97.9119 439.484C92.7204 441.062 87.2943 440.246 82.6735 437.212C78.1213 434.404 75.1888 429.624 74.5135 424.159L69.1598 381.403L30.877 361.726C24.6961 358.427 20.8319 352.204 20.942 345.267C21.0522 338.329 25.0971 332.168 31.5254 328.981C169.551 264.374 257.484 390.974 97.9119 439.484Z" fill="#60A5FA" stroke="#E7EBF4" stroke-width="1"></path>
<path opacity="0.7" d="M648.191 208.188C653.612 208.431 658.667 206.297 662.392 202.213C666.108 198.365 667.765 193.008 667.066 187.546L661.665 144.796L693.883 116.252C699.055 111.525 701.258 104.539 699.433 97.845C697.608 91.1509 692.164 86.1833 685.146 84.6874C535.42 56.2716 481.576 200.704 648.191 208.188Z" fill="#60A5FA" stroke="#E7EBF4" stroke-width="1"></path>
<path fill-rule="evenodd" clip-rule="evenodd" d="M563.308 178.492C564.527 184.789 570.621 188.75 576.918 187.532L665.482 169.351C671.779 168.031 675.74 161.937 674.522 155.742L654.209 56.5131C652.888 50.2161 646.794 46.2551 640.599 47.4739L552.034 65.6539C545.737 66.9743 541.776 73.0682 542.995 79.2636L563.308 178.492ZM543.991 79.0638C543.991 79.0651 543.992 79.0663 543.992 79.0676L564.305 178.299C565.413 184.023 570.955 187.649 576.72 186.535C576.722 186.535 576.723 186.535 576.725 186.534L665.274 168.357C665.275 168.357 665.276 168.357 665.277 168.357C671.023 167.15 674.635 161.592 673.526 155.942C673.525 155.94 673.525 155.939 673.525 155.938L653.215 56.7215C653.214 56.7206 653.214 56.7197 653.214 56.7188C652.007 50.972 646.45 47.3602 640.799 48.4696C640.798 48.4699 640.796 48.4701 640.795 48.4704L552.243 66.648C552.242 66.6481 552.242 66.6482 552.241 66.6484C546.494 67.8545 542.881 73.4126 543.991 79.0638Z" fill="#2563EB" stroke="#E7EBF4" stroke-width="1"></path>
<path d="M118.776 419.251H70.3298C66.9782 419.251 64.236 416.509 64.236 413.157V362.883C64.236 359.531 66.9782 356.789 70.3298 356.789H118.776C122.128 356.789 124.87 359.531 124.87 362.883V413.157C124.87 416.509 122.128 419.251 118.776 419.251Z" fill="none" stroke="#E7EBF4" stroke-width="1"></path>
<path d="M113.596 384.412C116.44 386.037 116.44 390.201 113.596 391.826L99.6815 399.849L85.7671 407.873C82.9233 409.498 79.3685 407.467 79.3685 404.217V388.17V372.021C79.3685 368.771 82.9233 366.638 85.7671 368.364L99.6815 376.388L113.596 384.412Z" fill="#60A5FA" stroke="#E7EBF4" stroke-width="1"></path>
<path d="M240.959 524.169H77.4974C77.3261 524.169 77.1576 524.212 77.0076 524.295L40.0341 544.649C39.1471 545.137 38.17 544.169 38.6501 543.278L59.5441 504.488C59.6239 504.34 59.6656 504.174 59.6656 504.006V486.285C59.6656 479.988 64.7438 474.91 71.0409 474.91H240.959C247.256 474.91 252.334 479.988 252.334 486.285V512.692C252.334 519.091 247.256 524.169 240.959 524.169Z" fill="#2563EB" stroke="#E7EBF4" stroke-width="1"></path>
<path d="M231.31 514.825H67.8487C67.6774 514.825 67.5089 514.869 67.3589 514.951L30.3854 535.305C29.4984 535.794 28.5213 534.825 29.0014 533.934L49.8955 495.144C49.9752 494.996 50.0169 494.831 50.0169 494.662V476.942C50.0169 470.645 55.0952 465.566 61.3922 465.566H231.31C237.607 465.566 242.685 470.645 242.685 476.942V503.348C242.685 509.747 237.607 514.825 231.31 514.825Z" fill="#60A5FA" stroke="#E7EBF4" stroke-width="1"></path>
<path d="M144.777 479.785H106.385V483.848H144.777V479.785Z" fill="#2563EB" stroke="#E7EBF4" stroke-width="1"></path>
<path opacity="0.8" d="M68.1508 476.562H94.5521V502.238H68.1508V476.562Z" fill="none" stroke="#E7EBF4" stroke-width="1"></path>
<path d="M212.216 493.191H106.385V497.254H212.216V493.191Z" fill="#2563EB" stroke="#E7EBF4" stroke-width="1"></path>
<path d="M84.9545 484.254H78.3528V490.856H84.9545V484.254Z" fill="#2563EB" stroke="#E7EBF4" stroke-width="1"></path>
<path d="M89.6269 492.379H73.6813V503.348H89.6269V492.379Z" fill="#2563EB" stroke="#E7EBF4" stroke-width="1"></path>
<path d="M73.7824 237.856H33.0549C20.4609 237.856 10.3044 227.7 10.3044 215.106C10.3044 202.512 20.4609 192.254 33.0549 192.254H73.7824C86.3764 192.254 96.5329 202.41 96.5329 215.004C96.6344 227.7 86.3764 237.856 73.7824 237.856Z" fill="none" stroke="#E7EBF4" stroke-width="1"></path>
<path opacity="0.3" d="M70.4148 195.484C81.2011 195.484 90.0348 204.225 90.0348 215.104C90.0348 225.891 81.2941 234.724 70.4148 234.724L34.5969 234.724V195.484H70.4148Z" fill="black" fill-opacity="0.47" stroke="#E7EBF4" stroke-width="1"></path>
<path d="M32.8999 238.007C45.5472 238.007 55.7998 227.754 55.7998 215.107C55.7998 202.46 45.5472 192.207 32.8999 192.207C20.2526 192.207 10 202.46 10 215.107C10 227.754 20.2526 238.007 32.8999 238.007Z" fill="#60A5FA" stroke="#E7EBF4" stroke-width="1"></path>
<path d="M33.0549 248.422H155.034C167.628 248.422 177.785 258.578 177.785 271.172C177.785 283.766 167.628 293.923 155.034 293.923H33.0549C20.4609 294.024 10.3044 283.868 10.3044 271.274C10.3044 258.68 20.4609 248.422 33.0549 248.422Z" fill="#2563EB" stroke="#E7EBF4" stroke-width="1"></path>
<path fill-rule="evenodd" clip-rule="evenodd" d="M28.8907 46.9141C30.293 46.9141 31.4298 48.0509 31.4298 49.4532V134.768C31.4298 136.17 30.293 137.307 28.8907 137.307C27.4884 137.307 26.3516 136.17 26.3516 134.768V49.4532C26.3516 48.0509 27.4884 46.9141 28.8907 46.9141Z" fill="#60A5FA" stroke="#E7EBF4" stroke-width="1"></path>
<path d="M28.8906 73.2231C34.7803 73.2231 39.5549 68.4486 39.5549 62.5588C39.5549 56.6691 34.7803 51.8945 28.8906 51.8945C23.0009 51.8945 18.2263 56.6691 18.2263 62.5588C18.2263 68.4486 23.0009 73.2231 28.8906 73.2231Z" fill="none" stroke="#E7EBF4" stroke-width="1"></path>
<path fill-rule="evenodd" clip-rule="evenodd" d="M61.8992 46.9141C63.3015 46.9141 64.4383 48.0509 64.4383 49.4532V134.768C64.4383 136.17 63.3015 137.307 61.8992 137.307C60.4969 137.307 59.3601 136.17 59.3601 134.768V49.4532C59.3601 48.0509 60.4969 46.9141 61.8992 46.9141Z" fill="#60A5FA" stroke="#E7EBF4" stroke-width="1"></path>
<path d="M61.8992 117.5C67.7889 117.5 72.5634 112.726 72.5634 106.836C72.5634 100.946 67.7889 96.1719 61.8992 96.1719C56.0094 96.1719 51.2349 100.946 51.2349 106.836C51.2349 112.726 56.0094 117.5 61.8992 117.5Z" fill="#2563EB" stroke="#E7EBF4" stroke-width="1"></path>
<path fill-rule="evenodd" clip-rule="evenodd" d="M94.8066 46.9141C96.2089 46.9141 97.3457 48.0509 97.3457 49.4532V134.768C97.3457 136.17 96.2089 137.307 94.8066 137.307C93.4043 137.307 92.2675 136.17 92.2675 134.768V49.4532C92.2675 48.0509 93.4043 46.9141 94.8066 46.9141Z" fill="#60A5FA" stroke="#E7EBF4" stroke-width="1"></path>
<path d="M94.8065 85.9184C100.696 85.9184 105.471 81.1439 105.471 75.2541C105.471 69.3644 100.696 64.5898 94.8065 64.5898C88.9168 64.5898 84.1422 69.3644 84.1422 75.2541C84.1422 81.1439 88.9168 85.9184 94.8065 85.9184Z" fill="none" stroke="#E7EBF4" stroke-width="1"></path>
<path fill-rule="evenodd" clip-rule="evenodd" d="M127.714 46.9141C129.116 46.9141 130.253 48.0509 130.253 49.4532V134.768C130.253 136.17 129.116 137.307 127.714 137.307C126.312 137.307 125.175 136.17 125.175 134.768V49.4532C125.175 48.0509 126.312 46.9141 127.714 46.9141Z" fill="#60A5FA" stroke="#E7EBF4" stroke-width="1"></path>
<path d="M127.714 109.075C133.604 109.075 138.378 104.3 138.378 98.4104C138.378 92.5207 133.604 87.7461 127.714 87.7461C121.824 87.7461 117.05 92.5207 117.05 98.4104C117.05 104.3 121.824 109.075 127.714 109.075Z" fill="#2563EB" stroke="#E7EBF4" stroke-width="1"></path>
<path opacity="0.3" d="M35.0972 251.82C24.5136 251.82 15.8459 260.397 15.8459 271.072C15.8459 281.655 24.4223 290.323 35.0972 290.323H141.699V251.82H35.0972Z" fill="black" fill-opacity="0.47" stroke="#E7EBF4" stroke-width="1"></path>
<path d="M432.219 207.691C432.219 207.691 512.151 228.512 523.526 243.442C534.901 258.271 649.974 410.516 649.974 410.516L459.235 465.564C420.031 448.298 400.125 407.571 386.312 359.226L432.219 207.691Z" fill="#FAC91B" stroke="#E7EBF4" stroke-width="1"></path>
<path d="M224.199 291.89C227.043 289.96 229.684 288.538 232.223 287.421L234.153 286.609L236.083 285.898C237.301 285.39 238.622 284.984 239.84 284.577C244.716 283.054 249.489 282.343 254.06 282.038C258.63 281.835 262.997 282.14 267.263 282.851C269.396 283.257 271.529 283.663 273.458 284.577C275.49 285.39 277.318 286.507 279.146 287.929C282.802 290.773 286.052 294.835 289.404 298.797C290.217 299.711 291.029 300.726 291.943 301.64C292.756 302.554 293.67 303.468 294.482 304.281C296.209 305.906 298.037 307.226 299.967 308.344C301.896 309.461 303.928 310.172 305.959 310.68C307.99 311.187 310.225 311.492 312.358 311.594C316.725 311.797 321.498 310.984 326.272 309.867C331.046 308.75 335.921 307.531 340.593 307.023C342.929 306.719 345.163 306.719 347.397 306.719C349.632 306.82 351.765 307.023 353.999 307.125C358.366 307.43 362.835 307.633 367.101 308.14C371.367 308.75 375.632 309.664 379.593 311.289C383.554 312.812 387.414 314.945 391.172 317.383C394.93 319.82 398.586 322.563 402.141 325.61C405.696 328.758 409.149 332.211 412.399 336.274C414.024 338.305 415.649 340.438 417.172 342.774C418.696 345.11 420.219 347.548 421.641 350.391C422.555 352.22 421.844 354.454 420.118 355.47C417.376 357.095 414.735 358.415 412.196 359.431C409.657 360.548 407.117 361.462 404.68 362.274C399.703 363.899 394.93 364.915 390.258 365.626C385.586 366.337 381.015 366.642 376.547 366.54C372.078 366.54 367.71 366.134 363.445 365.321C359.179 364.509 355.218 362.985 351.257 361.157C347.296 359.329 343.538 356.993 339.679 354.86C337.749 353.743 335.819 352.727 333.889 351.61C331.96 350.493 330.131 349.173 328.303 347.649C324.647 344.704 321.295 341.047 317.842 337.493C314.389 333.938 310.936 330.688 307.076 328.453C305.147 327.336 303.217 326.422 301.186 325.711C299.154 325 297.021 324.594 294.889 324.391C292.654 324.188 290.42 324.391 288.084 324.797C286.865 325 285.748 325.305 284.529 325.61C283.31 325.914 282.091 326.219 280.873 326.625C275.997 328.047 271.021 329.774 266.349 330.18C264.013 330.383 261.88 330.282 259.747 329.875C257.614 329.469 255.583 328.758 253.653 327.946C249.692 326.321 245.833 324.086 242.176 321.445C238.52 318.805 234.965 315.555 231.614 311.594C230.801 310.578 229.989 309.562 229.176 308.445L227.957 306.82L226.84 305.094C225.317 302.656 223.793 300.117 222.574 296.968C221.965 295.039 222.574 292.906 224.199 291.89Z" fill="#FAC91B" stroke="#E7EBF4" stroke-width="1"></path>
<path d="M239.231 369.183C242.989 365.222 246.645 362.683 250.403 360.448C254.059 358.315 257.817 356.792 261.474 355.675C265.13 354.557 268.786 353.948 272.443 353.643C274.271 353.542 276.099 353.44 277.927 353.643C279.755 353.846 281.583 354.354 283.412 355.065C287.068 356.386 290.623 358.925 294.279 361.159C296.107 362.276 297.935 363.292 299.662 364.206C301.49 365.019 303.318 365.73 305.146 366.136C306.975 366.542 308.803 366.745 310.631 366.644C312.459 366.644 314.287 366.441 316.115 366.034C319.772 365.323 323.428 363.698 327.186 361.87C330.842 360.042 334.6 358.112 338.257 356.792C340.085 356.081 341.913 355.573 343.741 355.167L349.226 354.151C352.882 353.44 356.538 352.729 360.195 352.221C363.851 351.815 367.507 351.612 371.164 352.018C374.82 352.323 378.476 353.237 382.133 354.253C385.789 355.268 389.445 356.589 393 358.214C396.656 359.839 400.211 361.769 403.867 364.105C407.524 366.542 411.078 369.183 414.633 372.839C415.75 373.956 415.75 375.784 414.532 376.902C410.774 380.456 407.117 382.894 403.36 385.128C399.703 387.363 395.945 389.089 392.289 390.613C388.633 392.035 384.875 393.254 381.218 394.168C377.562 395.082 373.906 395.691 370.249 395.894C366.593 396.097 362.937 395.894 359.28 395.285C355.624 394.675 351.968 393.761 348.311 392.949L342.827 391.629C340.999 391.121 339.171 390.511 337.343 389.8C333.686 388.378 330.131 386.246 326.475 384.316C322.819 382.386 319.264 380.66 315.608 379.745C313.78 379.339 311.951 379.035 310.123 378.933C308.295 378.831 306.467 378.933 304.639 379.238C302.811 379.542 300.982 380.152 299.154 380.863C297.326 381.675 295.498 382.589 293.568 383.707C289.912 385.839 286.154 388.074 282.498 389.293C280.669 389.902 278.841 390.308 277.013 390.41C275.185 390.613 273.357 390.41 271.529 390.207C267.872 389.8 264.216 388.988 260.56 387.668C256.903 386.449 253.349 384.722 249.692 382.488C246.036 380.152 242.481 377.511 238.926 373.347C238.114 372.027 238.215 370.3 239.231 369.183Z" fill="#FAC91B" stroke="#E7EBF4" stroke-width="1"></path>
<path d="M526.355 348.563L401.634 166.762L203.278 159.551C203.278 159.551 189.364 174.684 209.473 189.614C229.583 204.544 471.815 342.773 473.135 365.727C474.456 388.681 526.355 348.563 526.355 348.563Z" fill="#FAC91B" stroke="#E7EBF4" stroke-width="1"></path>
<path d="M307.787 440.782L461.861 409.196C472.525 407.063 479.33 396.602 477.197 385.938L407.93 48.1333C405.797 37.4691 395.438 30.6642 384.773 32.7971L230.598 64.3837C219.934 66.5166 213.129 76.9777 215.262 87.642L284.529 425.446C286.763 436.11 297.123 443.017 307.787 440.782Z" fill="#2563EB" stroke="#E7EBF4" stroke-width="1"></path>
<path fill-rule="evenodd" clip-rule="evenodd" d="M221.875 94.8525L222.869 94.6484L292.136 432.45C294.314 442.846 304.409 449.57 314.793 447.394L314.795 447.393L468.869 415.807L468.871 415.806C479.254 413.73 485.889 403.541 483.809 393.146L449.176 224.246L450.171 224.042L484.805 392.946C486.992 403.879 480.017 414.613 469.071 416.802L315.002 448.388C304.057 450.681 293.433 443.592 291.142 432.659L291.142 432.657L221.875 94.8525Z" fill="#2563EB" stroke="#E7EBF4" stroke-width="1"></path>
<path fill-rule="evenodd" clip-rule="evenodd" d="M221.875 94.8525L222.869 94.6484L292.136 432.45C294.314 442.846 304.409 449.57 314.793 447.394L314.795 447.393L468.869 415.807L468.871 415.806C479.254 413.73 485.889 403.541 483.809 393.146L449.176 224.246L450.171 224.042L484.805 392.946C486.992 403.879 480.017 414.613 469.071 416.802L315.002 448.388C304.057 450.681 293.433 443.592 291.142 432.659L291.142 432.657L221.875 94.8525Z" fill="black" fill-opacity="0.51" stroke="#E7EBF4" stroke-width="1"></path>
<path d="M522.231 566.288C500.222 531.377 479.667 496.824 465.164 457.753L643.154 391.93C644.779 391.32 646.404 391.016 648.131 391.016C651.888 391.016 655.443 392.438 658.084 395.078L659.099 396.094C721.359 457.439 757.109 495.526 765.336 509.338C764.321 511.167 764.065 520.53 669.203 540.233C622.925 549.92 569.851 566.288 522.231 566.288Z" fill="#2563EB" stroke="#E7EBF4" stroke-width="1"></path>
<path fill-rule="evenodd" clip-rule="evenodd" d="M655.24 398.028C653.311 396.098 650.771 395.082 648.131 395.082C646.912 395.082 645.693 395.285 644.576 395.793L458.51 464.451C455.666 465.467 453.533 467.599 452.517 470.342C451.4 473.185 451.603 476.131 453.025 478.772C461.758 495.302 472.793 511.742 484.235 527.966L481.308 536.98C468.271 518.734 455.074 499.924 445.814 482.428C440.634 472.678 445.205 460.49 455.666 456.63L641.732 387.973C643.865 387.262 645.998 386.855 648.131 386.855C652.803 386.855 657.475 388.684 661.131 392.035C683.069 413.567 756.907 486.084 769.196 507.413C781.079 528.03 557.637 583.789 518.737 583.789C507.813 583.789 512.864 568.271 517.823 575.766H518.636C527.744 575.766 548.944 569.192 574.338 561.317C599.346 553.562 628.422 544.545 654.022 539.304C732.633 523.155 754.367 512.491 760.055 508.632C749.391 493.194 714.453 456.326 656.256 399.043L655.24 398.028Z" fill="#2563EB" stroke="#E7EBF4" stroke-width="1"></path>
<path fill-rule="evenodd" clip-rule="evenodd" d="M655.24 398.028C653.311 396.098 650.771 395.082 648.131 395.082C646.912 395.082 645.693 395.285 644.576 395.793L458.51 464.451C455.666 465.467 453.533 467.599 452.517 470.342C451.4 473.185 451.603 476.131 453.025 478.772C461.758 495.302 472.793 511.742 484.235 527.966L481.308 536.98C468.271 518.734 455.074 499.924 445.814 482.428C440.634 472.678 445.205 460.49 455.666 456.63L641.732 387.973C643.865 387.262 645.998 386.855 648.131 386.855C652.803 386.855 657.475 388.684 661.131 392.035C683.069 413.567 756.907 486.084 769.196 507.413C781.079 528.03 557.637 583.789 518.737 583.789C507.813 583.789 512.864 568.271 517.823 575.766H518.636C527.744 575.766 548.944 569.192 574.338 561.317C599.346 553.562 628.422 544.545 654.022 539.304C732.633 523.155 754.367 512.491 760.055 508.632C749.391 493.194 714.453 456.326 656.256 399.043L655.24 398.028Z" fill="black" fill-opacity="0.2" stroke="#E7EBF4" stroke-width="1"></path>
<path fill-rule="evenodd" clip-rule="evenodd" d="M211.052 305.035C212.88 314.277 221.92 320.27 231.162 318.34L458.058 270.097C467.3 268.167 473.292 259.128 471.363 249.885L469.738 242.065C467.808 232.823 458.769 226.83 449.526 228.76L222.732 277.003C213.49 278.933 207.498 287.972 209.427 297.215L211.052 305.035ZM449.736 229.754C449.735 229.754 449.735 229.754 449.734 229.754L222.94 277.997C214.24 279.814 208.608 288.32 210.421 297.007L212.049 304.838C213.767 313.525 222.264 319.159 230.952 317.346C230.953 317.346 230.954 317.346 230.955 317.346L457.85 269.103C466.55 267.286 472.182 258.779 470.368 250.093L468.743 242.272C466.927 233.573 458.422 227.942 449.736 229.754Z" fill="#2563EB" stroke="#E7EBF4" stroke-width="1"></path>
<path fill-rule="evenodd" clip-rule="evenodd" d="M211.052 305.035C212.88 314.277 221.92 320.27 231.162 318.34L458.058 270.097C467.3 268.167 473.292 259.128 471.363 249.885L469.738 242.065C467.808 232.823 458.769 226.83 449.526 228.76L222.732 277.003C213.49 278.933 207.498 287.972 209.427 297.215L211.052 305.035ZM449.736 229.754C449.735 229.754 449.735 229.754 449.734 229.754L222.94 277.997C214.24 279.814 208.608 288.32 210.421 297.007L212.049 304.838C213.767 313.525 222.264 319.159 230.952 317.346C230.953 317.346 230.954 317.346 230.955 317.346L457.85 269.103C466.55 267.286 472.182 258.779 470.368 250.093L468.743 242.272C466.927 233.573 458.422 227.942 449.736 229.754Z" fill="white" fill-opacity="0.47" stroke="#E7EBF4" stroke-width="1"></path>
<path d="M586.582 523.965C585.364 523.965 584.145 523.457 583.332 522.441L536.511 464.042C535.089 462.315 535.394 459.674 537.12 458.252C538.847 456.83 541.488 457.135 542.909 458.862L589.731 517.261C591.153 518.988 590.848 521.629 589.121 523.051C588.41 523.66 587.496 523.965 586.582 523.965Z" fill="#2563EB" stroke="#E7EBF4" stroke-width="1"></path>
<path d="M247.255 327.438L474.15 279.194C483.393 277.265 489.385 268.225 487.455 258.983L485.83 251.163C483.901 241.92 474.861 235.928 465.619 237.858L238.825 286.101C229.583 288.031 223.59 297.07 225.52 306.312L227.145 314.133C228.973 323.375 238.012 329.367 247.255 327.438Z" fill="#60A5FA" stroke="#E7EBF4" stroke-width="1"></path>
<path d="M320.484 355.167L427.228 333.229C432.916 332.111 436.572 326.525 435.455 320.838L434.439 315.963C433.322 310.275 427.736 306.619 422.048 307.736L315.304 329.674C309.616 330.791 305.96 336.377 307.077 342.065L308.093 346.94C309.312 352.729 314.796 356.385 320.484 355.167Z" fill="none" stroke="#E7EBF4" stroke-width="1"></path>
<path opacity="0.3" d="M328.202 392.538L434.947 370.6C440.634 369.483 444.291 363.896 443.174 358.209L442.158 353.334C441.041 347.646 435.455 343.99 429.767 345.107L323.022 367.045C317.335 368.162 313.678 373.748 314.796 379.436L315.811 384.311C316.929 390.1 322.515 393.756 328.202 392.538Z" fill="#60A5FA" stroke="#E7EBF4" stroke-width="1"></path>
<path d="M503.198 292.704C503.198 292.704 396.453 283.36 348.515 277.266C300.576 271.172 338.46 306.314 361.312 318.806C384.164 331.299 507.463 394.066 507.463 394.066L559.972 356.69L503.198 292.704Z" fill="#FAC91B" stroke="#E7EBF4" stroke-width="1"></path>
<path d="M437.181 206.473L525.746 188.293C532.043 186.973 536.004 180.879 534.785 174.683L514.472 75.4545C513.152 69.1575 507.058 65.1965 500.862 66.4153L412.298 84.5953C406.001 85.9157 402.04 92.0096 403.259 98.205L423.571 197.434C424.79 203.731 430.884 207.692 437.181 206.473Z" fill="#60A5FA" stroke="#E7EBF4" stroke-width="1"></path>
<path d="M431.624 142.118L505.448 126.985C508.745 126.31 510.869 123.089 510.194 119.792L503.749 88.3524C503.073 85.0555 499.853 82.9307 496.556 83.6065L422.732 98.739C419.435 99.4148 417.31 102.635 417.986 105.932L424.431 137.372C425.107 140.669 428.327 142.794 431.624 142.118Z" fill="none" stroke="#E7EBF4" stroke-width="1"></path>
<path d="M442.531 195.18L516.355 180.048C519.652 179.372 521.777 176.152 521.101 172.855L514.656 141.415C513.98 138.118 510.76 135.993 507.463 136.669L433.639 151.802C430.342 152.477 428.218 155.698 428.893 158.995L435.338 190.434C436.014 193.731 439.234 195.856 442.531 195.18Z" fill="#2563EB" stroke="#E7EBF4" stroke-width="1"></path>
<path fill-rule="evenodd" clip-rule="evenodd" d="M247.823 66.4716C248.727 70.9914 253.02 73.8162 257.54 72.9123L366.693 50.5394C371.1 49.6354 374.038 45.3416 373.134 40.8218L370.987 30.6523L245.676 56.3021L247.823 66.4716ZM246.881 57.0922L370.201 31.8498L372.138 41.021C372.138 41.0226 372.138 41.0242 372.139 41.0257C372.928 44.9876 370.355 48.7515 366.489 49.5444L257.341 71.9164C257.34 71.9165 257.339 71.9167 257.338 71.9169C253.363 72.7107 249.611 70.2343 248.819 66.2724L246.881 57.0922Z" fill="none" stroke="#E7EBF4" stroke-width="1"></path>
<path opacity="0.8" d="M561.598 180.981L650.162 162.801C656.459 161.48 660.42 155.386 659.202 149.191L638.889 49.9623C637.568 43.6653 631.474 39.7043 625.279 40.9231L536.715 59.1032C530.418 60.4235 526.456 66.5174 527.675 72.7128L547.988 171.942C549.207 178.239 555.301 182.2 561.598 180.981Z" fill="#2563EB" stroke="#E7EBF4" stroke-width="1"></path>
<path opacity="0.9" d="M288.998 257.358L408.641 232.881C413.11 231.967 415.954 227.702 415.04 223.233L385.281 77.9952C384.367 73.5263 380.101 70.6825 375.633 71.5966L255.989 96.0737C251.52 96.9878 248.677 101.253 249.591 105.722L279.349 250.96C280.263 255.429 284.631 258.272 288.998 257.358Z" fill="#60A5FA" stroke="#E7EBF4" stroke-width="1"></path>
<path d="M365.882 110.192C369.977 110.192 373.296 106.872 373.296 102.778C373.296 98.6827 369.977 95.3633 365.882 95.3633C361.787 95.3633 358.468 98.6827 358.468 102.778C358.468 106.872 361.787 110.192 365.882 110.192Z" fill="#2563EB" stroke="#E7EBF4" stroke-width="1"></path>
<path opacity="0.3" d="M454.123 116.857C455.754 116.857 457.075 115.535 457.075 113.905C457.075 112.275 455.754 110.953 454.123 110.953C452.493 110.953 451.172 112.275 451.172 113.905C451.172 115.535 452.493 116.857 454.123 116.857Z" fill="black" stroke="#E7EBF4" stroke-width="1"></path>
<path opacity="0.7" d="M464.091 114.872C465.721 114.872 467.042 113.551 467.042 111.921C467.042 110.29 465.721 108.969 464.091 108.969C462.46 108.969 461.139 110.29 461.139 111.921C461.139 113.551 462.46 114.872 464.091 114.872Z" fill="black" stroke="#E7EBF4" stroke-width="1"></path>
<g opacity="0.3" filter="url(#filter0_d)">
<path d="M474.057 112.884C475.687 112.884 477.008 111.563 477.008 109.932C477.008 108.302 475.687 106.98 474.057 106.98C472.426 106.98 471.105 108.302 471.105 109.932C471.105 111.563 472.426 112.884 474.057 112.884Z" fill="black" stroke="#E7EBF4" stroke-width="1"></path>
</g>
<path d="M288.562 210.907L390.343 190.044C393.64 189.368 395.765 186.148 395.089 182.851L388.645 151.411C387.969 148.114 384.748 145.989 381.451 146.665L279.67 167.528C276.373 168.204 274.249 171.425 274.924 174.722L281.369 206.161C282.045 209.458 285.265 211.583 288.562 210.907Z" fill="none" stroke="#E7EBF4" stroke-width="1"></path>
<path d="M335.117 147.972L381.779 138.407C385.076 137.731 387.2 134.511 386.525 131.214L385.219 124.846C384.544 121.55 381.323 119.425 378.026 120.101L331.364 129.665C328.067 130.341 325.942 133.562 326.618 136.859L327.923 143.226C328.599 146.523 331.82 148.648 335.117 147.972Z" fill="black" fill-opacity="0.19" stroke="#E7EBF4" stroke-width="1"></path>
<path d="M396.071 218.258C399.367 217.583 401.493 214.364 400.819 211.067L399.502 204.625C398.828 201.327 395.608 199.2 392.31 199.875L290.6 220.69C287.303 221.364 285.177 224.583 285.851 227.88L287.168 234.323C287.842 237.621 291.062 239.747 294.36 239.072L396.071 218.258Z" fill="black" fill-opacity="0.19" stroke="#E7EBF4" stroke-width="1"></path>
<path d="M324.444 113.747C323.225 113.747 322.209 112.934 322.006 111.715C321.702 110.293 322.616 108.973 323.936 108.668L351.46 102.981C352.882 102.676 354.202 103.59 354.507 104.91C354.812 106.332 353.898 107.653 352.577 107.957L325.664 113.519C325.259 113.603 324.858 113.747 324.444 113.747Z" fill="black" fill-opacity="0.19" stroke="#E7EBF4" stroke-width="1"></path>
<path d="M638.888 503.144C637.669 503.144 636.451 502.637 635.638 501.621L588.817 443.221C587.395 441.495 587.7 438.854 589.426 437.432C591.153 436.01 593.793 436.315 595.215 438.041L642.037 496.441C643.459 498.168 643.154 500.808 641.427 502.23C640.716 502.84 639.802 503.144 638.888 503.144Z" fill="#2563EB" stroke="#E7EBF4" stroke-width="1"></path>
<path d="M691.194 482.426C689.975 482.426 688.756 481.918 687.944 480.902L641.123 422.502C639.701 420.776 640.005 418.135 641.732 416.713C643.459 415.291 646.099 415.596 647.521 417.323L694.342 475.722C695.764 477.449 695.46 480.09 693.733 481.512C693.022 482.121 692.108 482.426 691.194 482.426Z" fill="#2563EB" stroke="#E7EBF4" stroke-width="1"></path>
<path d="M586.582 523.965C585.364 523.965 584.145 523.457 583.332 522.441L536.511 464.042C535.089 462.315 535.394 459.674 537.12 458.252C538.847 456.83 541.488 457.135 542.909 458.862L589.731 517.261C591.153 518.988 590.848 521.629 589.121 523.051C588.41 523.66 587.496 523.965 586.582 523.965Z" fill="black" fill-opacity="0.2" stroke="#E7EBF4" stroke-width="1"></path>
<path d="M638.888 503.144C637.669 503.144 636.451 502.637 635.638 501.621L588.817 443.221C587.395 441.495 587.699 438.854 589.426 437.432C591.153 436.01 593.793 436.315 595.215 438.041L642.037 496.441C643.458 498.168 643.154 500.808 641.427 502.23C640.716 502.84 639.802 503.144 638.888 503.144Z" fill="black" fill-opacity="0.2" stroke="#E7EBF4" stroke-width="1"></path>
<path d="M691.194 482.426C689.975 482.426 688.756 481.918 687.944 480.902L641.123 422.502C639.701 420.776 640.005 418.135 641.732 416.713C643.459 415.291 646.099 415.596 647.521 417.323L694.342 475.722C695.764 477.449 695.46 480.09 693.733 481.512C693.022 482.121 692.108 482.426 691.194 482.426Z" fill="black" fill-opacity="0.2" stroke="#E7EBF4" stroke-width="1"></path>
<path fill-rule="evenodd" clip-rule="evenodd" d="M347.7 552.141C348.656 552.663 349.807 552.931 350.87 552.931C352.91 552.931 354.857 552.045 356.183 550.453L356.193 550.442L356.202 550.431C357.508 548.951 358.047 546.932 357.69 544.879L357.689 544.877L354.45 526.067L368.152 512.784L368.164 512.773C370.077 511.033 370.712 508.315 369.914 505.822C369.016 503.228 366.888 501.475 364.341 501.124L364.335 501.123L345.423 498.406L336.961 481.275C336.961 481.274 336.96 481.273 336.96 481.273C335.808 478.97 333.414 477.469 330.862 477.469C328.29 477.469 325.913 478.885 324.769 481.261L324.764 481.27L316.301 498.406L297.4 501.121C294.71 501.573 292.602 503.354 291.812 505.811C291.022 508.269 291.713 510.92 293.588 512.799L307.375 526.065L304.135 544.879C303.778 546.932 304.317 548.951 305.623 550.431L305.632 550.442L305.641 550.453C306.977 552.056 308.827 552.931 310.853 552.931C311.916 552.931 313.067 552.663 314.023 552.141L314.035 552.135L330.862 543.251L347.7 552.141ZM292.876 513.524C290.744 511.391 289.931 508.344 290.845 505.501C291.759 502.657 294.197 500.626 297.244 500.118L315.627 497.477L323.854 480.82C325.174 478.078 327.916 476.453 330.862 476.453C333.807 476.453 336.549 478.18 337.87 480.82L346.096 497.477L364.479 500.118C367.425 500.524 369.862 502.555 370.878 505.501C371.792 508.344 371.081 511.493 368.847 513.524L355.542 526.423L358.69 544.705C359.097 547.041 358.487 549.377 356.964 551.103C355.44 552.931 353.206 553.947 350.87 553.947C349.651 553.947 348.331 553.642 347.214 553.033L330.862 544.4L314.51 553.033C313.392 553.642 312.072 553.947 310.853 553.947C308.517 553.947 306.384 552.931 304.861 551.103C303.338 549.377 302.728 547.041 303.134 544.705L306.283 526.423L292.876 513.524Z" fill="#2563EB" stroke="#E7EBF4" stroke-width="1"></path>
<path d="M342.219 549.455C341 549.455 339.679 549.15 338.562 548.541L322.21 539.908L305.858 548.541C304.741 549.15 303.421 549.455 302.202 549.455C299.866 549.455 297.733 548.439 296.21 546.611C294.686 544.884 294.077 542.548 294.483 540.212L297.632 521.931L284.327 509.032C282.194 506.899 281.381 503.852 282.295 501.008C283.209 498.165 285.647 496.133 288.694 495.626L307.077 492.985L315.304 476.328C316.624 473.586 319.367 471.961 322.312 471.961C325.359 471.961 328 473.688 329.32 476.328L337.547 492.985L355.93 495.626C358.875 496.032 361.313 498.063 362.328 501.008C363.242 503.852 362.532 507.001 360.297 509.032L346.992 521.931L350.141 540.212C350.547 542.548 349.938 544.884 348.414 546.611C346.789 548.439 344.555 549.455 342.219 549.455Z" fill="#60A5FA" stroke="#E7EBF4" stroke-width="1"></path>
<path d="M703.077 275.232C701.858 275.232 700.538 274.927 699.421 274.318L683.069 265.685L666.717 274.318C665.6 274.927 664.28 275.232 663.061 275.232C660.725 275.232 658.592 274.216 657.068 272.388C655.545 270.662 654.936 268.326 655.342 265.99L658.49 247.708L645.084 234.809C642.951 232.677 642.138 229.63 643.052 226.786C643.967 223.942 646.404 221.911 649.451 221.403L667.834 218.762L676.061 202.106C677.381 199.363 680.124 197.738 683.069 197.738C686.014 197.738 688.757 199.465 690.077 202.106L698.304 218.762L716.687 221.403C719.632 221.809 722.07 223.84 723.085 226.786C724 229.63 723.289 232.778 721.054 234.809L707.749 247.708L710.898 265.99C711.304 268.326 710.695 270.662 709.171 272.388C707.648 274.216 705.413 275.232 703.077 275.232Z" fill="#2563EB" stroke="#E7EBF4" stroke-width="1"></path>
<path d="M564.815 160.028L638.638 144.896C641.935 144.22 644.06 140.999 643.384 137.702L636.94 106.263C636.264 102.966 633.043 100.841 629.746 101.517L555.923 116.649C552.626 117.325 550.501 120.545 551.177 123.842L557.621 155.282C558.297 158.579 561.518 160.704 564.815 160.028Z" fill="#60A5FA" stroke="#E7EBF4" stroke-width="1"></path>
<path d="M575.614 100.743L570.028 73.6251L599.787 67.5312L605.373 94.649L575.614 100.743ZM574.903 76.6721L578.864 95.8678L600.701 91.399L596.74 72.2032L574.903 76.6721Z" fill="#60A5FA" stroke="#E7EBF4" stroke-width="1"></path>
<path d="M584.797 86.06L591.264 84.7344L589.939 78.2673L583.472 79.593L584.797 86.06Z" fill="#60A5FA" stroke="#E7EBF4" stroke-width="1"></path>
<path d="M581.962 95.2956L597.583 92.0938L596.175 85.2288L580.555 88.4306L581.962 95.2956Z" fill="#60A5FA" stroke="#E7EBF4" stroke-width="1"></path>
<path d="M260.764 68.7508L358.875 48.641C362.836 47.8285 365.477 43.969 364.664 39.9064L362.735 30.7656L250.099 53.8208L252.029 62.9616C252.842 67.0242 256.701 69.5633 260.764 68.7508Z" fill="#60A5FA" stroke="#E7EBF4" stroke-width="1"></path>
<path fill-rule="evenodd" clip-rule="evenodd" d="M139.23 303.119C155.563 303.119 168.803 289.879 168.803 273.546C168.803 257.213 155.563 243.973 139.23 243.973C122.897 243.973 109.656 257.213 109.656 273.546C109.656 289.879 122.897 303.119 139.23 303.119ZM169.819 273.546C169.819 290.44 156.123 304.135 139.23 304.135C122.336 304.135 108.641 290.44 108.641 273.546C108.641 256.652 122.336 242.957 139.23 242.957C156.123 242.957 169.819 256.652 169.819 273.546Z" fill="none" stroke="#E7EBF4" stroke-width="1"></path>
<path d="M96.8374 503.348H66.4696V475.621H96.8374V503.348ZM70.5322 499.286H92.7749V479.684H70.5322V499.286Z" fill="#2563EB" stroke="#E7EBF4" stroke-width="1"></path>
<path d="M153.886 301.861C170.78 301.861 184.475 288.166 184.475 271.273C184.475 254.379 170.78 240.684 153.886 240.684C136.992 240.684 123.297 254.379 123.297 271.273C123.297 288.166 136.992 301.861 153.886 301.861Z" fill="#60A5FA" stroke="#E7EBF4" stroke-width="1"></path>
<path fill-rule="evenodd" clip-rule="evenodd" d="M328.325 17.7683C328.584 18.8596 327.91 19.955 326.819 20.2148C306.05 25.1598 274.355 33.0713 246.774 40.7328C232.98 44.5645 220.239 48.3268 210.416 51.6196C205.502 53.2668 201.348 54.7868 198.168 56.1305C194.894 57.5142 192.92 58.6054 192.122 59.3309C191.469 59.9242 190.842 61.0511 190.403 62.9311C189.972 64.7798 189.771 67.1441 189.793 69.9516C189.837 75.5625 190.764 82.6316 192.207 90.234C195.089 105.42 199.961 122.403 203.573 133.403C203.923 134.469 203.342 135.617 202.276 135.967C201.211 136.317 200.063 135.737 199.713 134.671C196.067 123.567 191.14 106.405 188.216 90.9914C186.755 83.2942 185.777 75.9504 185.731 69.9835C185.707 67.0021 185.915 64.2863 186.447 62.0072C186.972 59.7595 187.865 57.711 189.389 56.3249C190.769 55.071 193.366 53.7497 196.587 52.3884C199.902 50.9872 204.167 49.4298 209.125 47.7676C219.048 44.4416 231.867 40.6572 245.686 36.8185C273.332 29.1392 305.078 21.215 325.878 16.2627C326.969 16.0029 328.065 16.677 328.325 17.7683Z" fill="#2563EB" stroke="#E7EBF4" stroke-width="1"></path>
<path fill-rule="evenodd" clip-rule="evenodd" d="M691.357 559.361C690.963 558.311 691.495 557.14 692.545 556.746C697.42 554.916 702.316 553.094 707.17 551.286C722.264 545.666 736.951 540.198 749.331 535.161C757.509 531.834 764.633 528.714 770.171 525.883C775.804 523.004 779.504 520.564 781.125 518.669C781.608 518.105 781.908 517.219 781.773 515.738C781.637 514.239 781.068 512.344 780.065 510.069C778.06 505.527 774.551 499.975 770.398 493.912C768.331 490.895 766.124 487.781 763.891 484.63L763.766 484.453C761.576 481.364 759.362 478.241 757.248 475.165C752.951 468.914 748.997 462.762 746.432 457.349C745.951 456.335 746.384 455.124 747.397 454.643C748.411 454.163 749.623 454.595 750.103 455.609C752.519 460.708 756.312 466.632 760.595 472.864C762.693 475.916 764.893 479.019 767.088 482.116L767.205 482.28C769.436 485.427 771.661 488.568 773.749 491.616C777.907 497.685 781.61 503.509 783.781 508.429C784.866 510.886 785.626 513.243 785.819 515.371C786.014 517.519 785.643 519.638 784.212 521.31C782.007 523.887 777.619 526.638 772.021 529.5C766.328 532.41 759.079 535.581 750.862 538.924C738.42 543.986 723.65 549.485 708.54 555.111C703.697 556.914 698.819 558.731 693.972 560.549C692.922 560.944 691.751 560.412 691.357 559.361Z" fill="#2563EB" stroke="#E7EBF4" stroke-width="1"></path>
<path fill-rule="evenodd" clip-rule="evenodd" d="M706.449 206.011C706.493 205.734 706.753 205.545 707.03 205.588C716.489 207.082 723.399 209.841 728.049 212.623C730.374 214.013 732.139 215.412 733.377 216.665C734.599 217.903 735.353 219.046 735.571 219.933C737.792 228.94 732.558 234.975 727.22 239.856C726.358 240.644 725.497 241.398 724.662 242.131C722.879 243.695 721.212 245.158 719.892 246.626C717.961 248.776 716.924 250.785 717.338 252.936C717.391 253.211 717.211 253.478 716.936 253.531C716.66 253.584 716.394 253.404 716.341 253.128C715.833 250.49 717.15 248.158 719.137 245.947C720.497 244.433 722.241 242.903 724.05 241.316C724.875 240.592 725.713 239.857 726.534 239.106C731.85 234.246 736.658 228.582 734.585 220.176C734.433 219.559 733.837 218.577 732.654 217.379C731.486 216.196 729.792 214.848 727.528 213.494C723.001 210.787 716.217 208.067 706.872 206.592C706.595 206.548 706.406 206.288 706.449 206.011Z" fill="#2563EB" stroke="#E7EBF4" stroke-width="1"></path>
<path fill-rule="evenodd" clip-rule="evenodd" d="M159.927 558.226C160.648 559.085 160.536 560.366 159.676 561.087L152.873 566.795L157.202 571.824C157.934 572.675 157.837 573.957 156.987 574.689C156.137 575.421 154.854 575.325 154.123 574.474L149.761 569.406L143.445 574.705C142.585 575.427 141.304 575.314 140.583 574.455C139.862 573.595 139.974 572.314 140.834 571.593L147.111 566.327L142.403 560.856C141.671 560.006 141.767 558.724 142.617 557.992C143.468 557.26 144.75 557.356 145.482 558.206L150.223 563.715L157.065 557.975C157.924 557.254 159.206 557.366 159.927 558.226Z" fill="#2563EB" stroke="#E7EBF4" stroke-width="1"></path>
<path fill-rule="evenodd" clip-rule="evenodd" d="M748.48 70.9914C749.201 71.8508 749.089 73.132 748.23 73.8531L741.427 79.5605L745.755 84.5899C746.487 85.4402 746.391 86.7228 745.541 87.4546C744.69 88.1864 743.408 88.0903 742.676 87.24L738.314 82.1719L731.998 87.4711C731.139 88.1921 729.858 88.08 729.137 87.2205C728.416 86.3611 728.528 85.0799 729.387 84.3588L735.664 79.0924L730.956 73.622C730.224 72.7717 730.321 71.4891 731.171 70.7573C732.021 70.0255 733.304 70.1216 734.036 70.9719L738.777 76.4811L745.619 70.7408C746.478 70.0198 747.759 70.1319 748.48 70.9914Z" fill="#2563EB" stroke="#E7EBF4" stroke-width="1"></path>
<path fill-rule="evenodd" clip-rule="evenodd" d="M667.762 350.491C668.483 351.351 668.371 352.632 667.512 353.353L660.709 359.061L665.037 364.09C665.769 364.94 665.673 366.223 664.823 366.955C663.972 367.686 662.69 367.59 661.958 366.74L657.596 361.672L651.28 366.971C650.421 367.692 649.14 367.58 648.419 366.721C647.697 365.861 647.81 364.58 648.669 363.859L654.946 358.592L650.238 353.122C649.506 352.272 649.602 350.989 650.453 350.257C651.303 349.526 652.586 349.622 653.317 350.472L658.059 355.981L664.9 350.241C665.76 349.52 667.041 349.632 667.762 350.491Z" fill="#2563EB" stroke="#E7EBF4" stroke-width="1"></path>
<path d="M326.538 479.487C326.538 480.373 325.819 481.091 324.933 481.091C324.048 481.091 323.329 480.373 323.329 479.487C323.329 478.601 324.048 477.883 324.933 477.883C325.819 477.883 326.538 478.601 326.538 479.487Z" fill="none" stroke="#E7EBF4" stroke-width="1"></path>
<path d="M330.364 484.589C330.364 485.475 329.646 486.193 328.76 486.193C327.874 486.193 327.156 485.475 327.156 484.589C327.156 483.703 327.874 482.985 328.76 482.985C329.646 482.985 330.364 483.703 330.364 484.589Z" fill="none" stroke="#E7EBF4" stroke-width="1"></path>
<path d="M333.573 490.155C333.573 491.041 332.854 491.76 331.969 491.76C331.083 491.76 330.364 491.041 330.364 490.155C330.364 489.269 331.083 488.551 331.969 488.551C332.854 488.551 333.573 489.269 333.573 490.155Z" fill="none" stroke="#E7EBF4" stroke-width="1"></path>
<path d="M324.18 487.798C324.18 488.684 323.462 489.402 322.576 489.402C321.69 489.402 320.971 488.684 320.971 487.798C320.971 486.912 321.69 486.193 322.576 486.193C323.462 486.193 324.18 486.912 324.18 487.798Z" fill="none" stroke="#E7EBF4" stroke-width="1"></path>
<path d="M328.142 493.364C328.142 494.25 327.424 494.968 326.538 494.968C325.652 494.968 324.933 494.25 324.933 493.364C324.933 492.478 325.652 491.76 326.538 491.76C327.424 491.76 328.142 492.478 328.142 493.364Z" fill="none" stroke="#E7EBF4" stroke-width="1"></path>
<path d="M338.153 496.572C338.153 497.458 337.435 498.176 336.549 498.176C335.663 498.176 334.945 497.458 334.945 496.572C334.945 495.686 335.663 494.968 336.549 494.968C337.435 494.968 338.153 495.686 338.153 496.572Z" fill="none" stroke="#E7EBF4" stroke-width="1"></path>
<path d="M341.361 502.138C341.361 503.024 340.643 503.742 339.757 503.742C338.871 503.742 338.153 503.024 338.153 502.138C338.153 501.252 338.871 500.534 339.757 500.534C340.643 500.534 341.361 501.252 341.361 502.138Z" fill="none" stroke="#E7EBF4" stroke-width="1"></path>
<path d="M331.969 499.78C331.969 500.666 331.25 501.385 330.364 501.385C329.478 501.385 328.76 500.666 328.76 499.78C328.76 498.894 329.478 498.176 330.364 498.176C331.25 498.176 331.969 498.894 331.969 499.78Z" fill="none" stroke="#E7EBF4" stroke-width="1"></path>
<path d="M335.931 505.347C335.931 506.232 335.212 506.951 334.326 506.951C333.44 506.951 332.722 506.232 332.722 505.347C332.722 504.461 333.44 503.742 334.326 503.742C335.212 503.742 335.931 504.461 335.931 505.347Z" fill="none" stroke="#E7EBF4" stroke-width="1"></path>
<path d="M355.663 499.78C355.663 500.666 354.945 501.385 354.059 501.385C353.173 501.385 352.455 500.666 352.455 499.78C352.455 498.894 353.173 498.176 354.059 498.176C354.945 498.176 355.663 498.894 355.663 499.78Z" fill="none" stroke="#E7EBF4" stroke-width="1"></path>
<path d="M358.872 505.347C358.872 506.232 358.153 506.951 357.267 506.951C356.382 506.951 355.663 506.232 355.663 505.347C355.663 504.461 356.382 503.742 357.267 503.742C358.153 503.742 358.872 504.461 358.872 505.347Z" fill="none" stroke="#E7EBF4" stroke-width="1"></path>
<path d="M347.159 498.176C347.159 499.062 346.441 499.78 345.555 499.78C344.669 499.78 343.951 499.062 343.951 498.176C343.951 497.29 344.669 496.572 345.555 496.572C346.441 496.572 347.159 497.29 347.159 498.176Z" fill="none" stroke="#E7EBF4" stroke-width="1"></path>
<path d="M353.441 508.555C353.441 509.441 352.723 510.159 351.837 510.159C350.951 510.159 350.232 509.441 350.232 508.555C350.232 507.669 350.951 506.951 351.837 506.951C352.723 506.951 353.441 507.669 353.441 508.555Z" fill="none" stroke="#E7EBF4" stroke-width="1"></path>
<path d="M349.479 503.742C349.479 504.628 348.76 505.347 347.875 505.347C346.989 505.347 346.27 504.628 346.27 503.742C346.27 502.856 346.989 502.138 347.875 502.138C348.76 502.138 349.479 502.856 349.479 503.742Z" fill="none" stroke="#E7EBF4" stroke-width="1"></path>
<path d="M343.951 508.555C343.951 509.441 343.233 510.159 342.347 510.159C341.461 510.159 340.743 509.441 340.743 508.555C340.743 507.669 341.461 506.951 342.347 506.951C343.233 506.951 343.951 507.669 343.951 508.555Z" fill="none" stroke="#E7EBF4" stroke-width="1"></path>
<path d="M349.479 512.961C349.479 513.847 348.76 514.566 347.875 514.566C346.989 514.566 346.27 513.847 346.27 512.961C346.27 512.075 346.989 511.357 347.875 511.357C348.76 511.357 349.479 512.075 349.479 512.961Z" fill="none" stroke="#E7EBF4" stroke-width="1"></path>
<path d="M343.951 517.02C343.951 517.906 343.233 518.624 342.347 518.624C341.461 518.624 340.743 517.906 340.743 517.02C340.743 516.134 341.461 515.416 342.347 515.416C343.233 515.416 343.951 516.134 343.951 517.02Z" fill="none" stroke="#E7EBF4" stroke-width="1"></path>
<path d="M685.074 206.026C685.074 206.912 684.356 207.63 683.47 207.63C682.584 207.63 681.866 206.912 681.866 206.026C681.866 205.14 682.584 204.422 683.47 204.422C684.356 204.422 685.074 205.14 685.074 206.026Z" fill="none" stroke="#E7EBF4" stroke-width="1"></path>
<path d="M688.901 211.128C688.901 212.014 688.183 212.732 687.297 212.732C686.411 212.732 685.692 212.014 685.692 211.128C685.692 210.242 686.411 209.524 687.297 209.524C688.183 209.524 688.901 210.242 688.901 211.128Z" fill="none" stroke="#E7EBF4" stroke-width="1"></path>
<path d="M692.109 216.694C692.109 217.58 691.391 218.299 690.505 218.299C689.619 218.299 688.901 217.58 688.901 216.694C688.901 215.809 689.619 215.09 690.505 215.09C691.391 215.09 692.109 215.809 692.109 216.694Z" fill="none" stroke="#E7EBF4" stroke-width="1"></path>
<path d="M682.716 214.337C682.716 215.223 681.998 215.941 681.112 215.941C680.226 215.941 679.508 215.223 679.508 214.337C679.508 213.451 680.226 212.732 681.112 212.732C681.998 212.732 682.716 213.451 682.716 214.337Z" fill="none" stroke="#E7EBF4" stroke-width="1"></path>
<path d="M686.678 219.903C686.678 220.789 685.96 221.507 685.074 221.507C684.188 221.507 683.47 220.789 683.47 219.903C683.47 219.017 684.188 218.299 685.074 218.299C685.96 218.299 686.678 219.017 686.678 219.903Z" fill="none" stroke="#E7EBF4" stroke-width="1"></path>
<path d="M696.69 223.111C696.69 223.997 695.971 224.715 695.085 224.715C694.199 224.715 693.481 223.997 693.481 223.111C693.481 222.225 694.199 221.507 695.085 221.507C695.971 221.507 696.69 222.225 696.69 223.111Z" fill="none" stroke="#E7EBF4" stroke-width="1"></path>
<path d="M699.898 228.677C699.898 229.563 699.18 230.281 698.294 230.281C697.408 230.281 696.69 229.563 696.69 228.677C696.69 227.791 697.408 227.073 698.294 227.073C699.18 227.073 699.898 227.791 699.898 228.677Z" fill="none" stroke="#E7EBF4" stroke-width="1"></path>
<path d="M690.505 226.319C690.505 227.205 689.787 227.924 688.901 227.924C688.015 227.924 687.297 227.205 687.297 226.319C687.297 225.433 688.015 224.715 688.901 224.715C689.787 224.715 690.505 225.433 690.505 226.319Z" fill="none" stroke="#E7EBF4" stroke-width="1"></path>
<path d="M694.467 231.886C694.467 232.772 693.749 233.49 692.863 233.49C691.977 233.49 691.259 232.772 691.259 231.886C691.259 231 691.977 230.281 692.863 230.281C693.749 230.281 694.467 231 694.467 231.886Z" fill="none" stroke="#E7EBF4" stroke-width="1"></path>
<path d="M714.2 226.319C714.2 227.205 713.481 227.924 712.596 227.924C711.71 227.924 710.991 227.205 710.991 226.319C710.991 225.433 711.71 224.715 712.596 224.715C713.481 224.715 714.2 225.433 714.2 226.319Z" fill="none" stroke="#E7EBF4" stroke-width="1"></path>
<path d="M717.408 231.886C717.408 232.772 716.69 233.49 715.804 233.49C714.918 233.49 714.2 232.772 714.2 231.886C714.2 231 714.918 230.281 715.804 230.281C716.69 230.281 717.408 231 717.408 231.886Z" fill="none" stroke="#E7EBF4" stroke-width="1"></path>
<path d="M705.696 224.715C705.696 225.601 704.978 226.319 704.092 226.319C703.206 226.319 702.488 225.601 702.488 224.715C702.488 223.829 703.206 223.111 704.092 223.111C704.978 223.111 705.696 223.829 705.696 224.715Z" fill="none" stroke="#E7EBF4" stroke-width="1"></path>
<path d="M711.977 235.094C711.977 235.98 711.259 236.698 710.373 236.698C709.487 236.698 708.769 235.98 708.769 235.094C708.769 234.208 709.487 233.49 710.373 233.49C711.259 233.49 711.977 234.208 711.977 235.094Z" fill="none" stroke="#E7EBF4" stroke-width="1"></path>
<path d="M708.015 230.281C708.015 231.167 707.297 231.886 706.411 231.886C705.525 231.886 704.807 231.167 704.807 230.281C704.807 229.395 705.525 228.677 706.411 228.677C707.297 228.677 708.015 229.395 708.015 230.281Z" fill="none" stroke="#E7EBF4" stroke-width="1"></path>
<path d="M702.488 235.094C702.488 235.98 701.769 236.698 700.883 236.698C699.997 236.698 699.279 235.98 699.279 235.094C699.279 234.208 699.997 233.49 700.883 233.49C701.769 233.49 702.488 234.208 702.488 235.094Z" fill="none" stroke="#E7EBF4" stroke-width="1"></path>
<path d="M708.015 239.5C708.015 240.386 707.297 241.105 706.411 241.105C705.525 241.105 704.807 240.386 704.807 239.5C704.807 238.614 705.525 237.896 706.411 237.896C707.297 237.896 708.015 238.614 708.015 239.5Z" fill="none" stroke="#E7EBF4" stroke-width="1"></path>
<path d="M702.488 243.559C702.488 244.445 701.769 245.163 700.883 245.163C699.997 245.163 699.279 244.445 699.279 243.559C699.279 242.673 699.997 241.955 700.883 241.955C701.769 241.955 702.488 242.673 702.488 243.559Z" fill="none" stroke="#E7EBF4" stroke-width="1"></path>
<path d="M547.919 297.535C547.919 296.169 549.026 295.062 550.392 295.062C551.758 295.062 552.865 296.169 552.865 297.535C552.865 298.901 551.758 300.008 550.392 300.008C549.026 300.008 547.919 298.901 547.919 297.535Z" fill="white" fill-opacity="0.84" stroke="#E7EBF4" stroke-width="1"></path>
<path d="M532.018 294.615C532.018 293.249 533.125 292.142 534.491 292.142C535.857 292.142 536.965 293.249 536.965 294.615C536.965 295.981 535.857 297.088 534.491 297.088C533.125 297.088 532.018 295.981 532.018 294.615Z" fill="white" fill-opacity="0.84" stroke="#E7EBF4" stroke-width="1"></path>
<path d="M527.072 286.033C527.072 284.667 528.179 283.56 529.545 283.56C530.911 283.56 532.018 284.667 532.018 286.033C532.018 287.399 530.911 288.507 529.545 288.507C528.179 288.507 527.072 287.399 527.072 286.033Z" fill="white" fill-opacity="0.84" stroke="#E7EBF4" stroke-width="1"></path>
<path d="M541.553 289.669C541.553 288.303 542.661 287.195 544.027 287.195C545.393 287.195 546.5 288.303 546.5 289.669C546.5 291.035 545.393 292.142 544.027 292.142C542.661 292.142 541.553 291.035 541.553 289.669Z" fill="white" fill-opacity="0.84" stroke="#E7EBF4" stroke-width="1"></path>
<path d="M535.445 281.087C535.445 279.721 536.552 278.614 537.918 278.614C539.284 278.614 540.391 279.721 540.391 281.087C540.391 282.453 539.284 283.56 537.918 283.56C536.552 283.56 535.445 282.453 535.445 281.087Z" fill="white" fill-opacity="0.84" stroke="#E7EBF4" stroke-width="1"></path>
<path d="M520.01 276.14C520.01 274.774 521.117 273.667 522.483 273.667C523.849 273.667 524.956 274.774 524.956 276.14C524.956 277.506 523.849 278.614 522.483 278.614C521.117 278.614 520.01 277.506 520.01 276.14Z" fill="white" fill-opacity="0.84" stroke="#E7EBF4" stroke-width="1"></path>
<path d="M515.063 267.559C515.063 266.193 516.17 265.085 517.536 265.085C518.902 265.085 520.01 266.193 520.01 267.559C520.01 268.924 518.902 270.032 517.536 270.032C516.17 270.032 515.063 268.924 515.063 267.559Z" fill="white" fill-opacity="0.84" stroke="#E7EBF4" stroke-width="1"></path>
<path d="M529.545 271.194C529.545 269.828 530.652 268.721 532.018 268.721C533.384 268.721 534.491 269.828 534.491 271.194C534.491 272.56 533.384 273.667 532.018 273.667C530.652 273.667 529.545 272.56 529.545 271.194Z" fill="white" fill-opacity="0.84" stroke="#E7EBF4" stroke-width="1"></path>
<path d="M523.436 262.612C523.436 261.246 524.544 260.139 525.909 260.139C527.275 260.139 528.383 261.246 528.383 262.612C528.383 263.978 527.275 265.085 525.909 265.085C524.544 265.085 523.436 263.978 523.436 262.612Z" fill="white" fill-opacity="0.84" stroke="#E7EBF4" stroke-width="1"></path>
<path d="M518.081 253.729C518.081 252.363 519.189 251.255 520.555 251.255C521.92 251.255 523.028 252.363 523.028 253.729C523.028 255.095 521.92 256.202 520.555 256.202C519.189 256.202 518.081 255.095 518.081 253.729Z" fill="white" fill-opacity="0.84" stroke="#E7EBF4" stroke-width="1"></path>
<path d="M495.509 244.614C495.509 243.248 496.616 242.141 497.982 242.141C499.348 242.141 500.456 243.248 500.456 244.614C500.456 245.98 499.348 247.087 497.982 247.087C496.616 247.087 495.509 245.98 495.509 244.614Z" fill="white" fill-opacity="0.84" stroke="#E7EBF4" stroke-width="1"></path>
<path d="M506.124 273.667C506.124 272.301 507.231 271.194 508.597 271.194C509.963 271.194 511.07 272.301 511.07 273.667C511.07 275.033 509.963 276.14 508.597 276.14C507.231 276.14 506.124 275.033 506.124 273.667Z" fill="white" fill-opacity="0.84" stroke="#E7EBF4" stroke-width="1"></path>
<path d="M496.439 257.666C496.439 256.3 497.547 255.192 498.913 255.192C500.279 255.192 501.386 256.3 501.386 257.666C501.386 259.031 500.279 260.139 498.913 260.139C497.547 260.139 496.439 259.031 496.439 257.666Z" fill="white" fill-opacity="0.84" stroke="#E7EBF4" stroke-width="1"></path>
<path d="M502.548 265.085C502.548 263.719 503.655 262.612 505.021 262.612C506.387 262.612 507.495 263.719 507.495 265.085C507.495 266.451 506.387 267.559 505.021 267.559C503.655 267.559 502.548 266.451 502.548 265.085Z" fill="white" fill-opacity="0.84" stroke="#E7EBF4" stroke-width="1"></path>
<path d="M511.07 257.666C511.07 256.3 512.178 255.192 513.544 255.192C514.909 255.192 516.017 256.3 516.017 257.666C516.017 259.031 514.909 260.139 513.544 260.139C512.178 260.139 511.07 259.031 511.07 257.666Z" fill="white" fill-opacity="0.84" stroke="#E7EBF4" stroke-width="1"></path>
<path d="M502.548 250.872C502.548 249.506 503.655 248.398 505.021 248.398C506.387 248.398 507.495 249.506 507.495 250.872C507.495 252.238 506.387 253.345 505.021 253.345C503.655 253.345 502.548 252.238 502.548 250.872Z" fill="white" fill-opacity="0.84" stroke="#E7EBF4" stroke-width="1"></path>
<path d="M511.07 244.614C511.07 243.248 512.178 242.141 513.544 242.141C514.909 242.141 516.017 243.248 516.017 244.614C516.017 245.98 514.909 247.087 513.544 247.087C512.178 247.087 511.07 245.98 511.07 244.614Z" fill="white" fill-opacity="0.84" stroke="#E7EBF4" stroke-width="1"></path>
<path d="M493.036 233.269C493.036 231.903 494.143 230.795 495.509 230.795C496.875 230.795 497.982 231.903 497.982 233.269C497.982 234.635 496.875 235.742 495.509 235.742C494.143 235.742 493.036 234.635 493.036 233.269Z" fill="white" fill-opacity="0.84" stroke="#E7EBF4" stroke-width="1"></path>
<path d="M502.548 239.668C502.548 238.302 503.655 237.194 505.021 237.194C506.387 237.194 507.495 238.302 507.495 239.668C507.495 241.033 506.387 242.141 505.021 242.141C503.655 242.141 502.548 241.033 502.548 239.668Z" fill="white" fill-opacity="0.84" stroke="#E7EBF4" stroke-width="1"></path>
<path d="M481.13 228.73C481.13 227.364 482.238 226.257 483.604 226.257C484.97 226.257 486.077 227.364 486.077 228.73C486.077 230.096 484.97 231.203 483.604 231.203C482.238 231.203 481.13 230.096 481.13 228.73Z" fill="white" fill-opacity="0.84" stroke="#E7EBF4" stroke-width="1"></path>
<path d="M486.626 238.817C486.626 237.451 487.733 236.344 489.099 236.344C490.465 236.344 491.573 237.451 491.573 238.817C491.573 240.183 490.465 241.291 489.099 241.291C487.733 241.291 486.626 240.183 486.626 238.817Z" fill="white" fill-opacity="0.84" stroke="#E7EBF4" stroke-width="1"></path>
<path d="M540.391 303.536C540.391 302.17 541.499 301.062 542.865 301.062C544.23 301.062 545.338 302.17 545.338 303.536C545.338 304.902 544.23 306.009 542.865 306.009C541.499 306.009 540.391 304.902 540.391 303.536Z" fill="white" fill-opacity="0.84" stroke="#E7EBF4" stroke-width="1"></path>
<path d="M574.409 332.35C574.409 330.984 575.516 329.877 576.882 329.877C578.248 329.877 579.355 330.984 579.355 332.35C579.355 333.716 578.248 334.824 576.882 334.824C575.516 334.824 574.409 333.716 574.409 332.35Z" fill="white" fill-opacity="0.84" stroke="#E7EBF4" stroke-width="1"></path>
<path d="M558.508 329.43C558.508 328.064 559.616 326.957 560.982 326.957C562.348 326.957 563.455 328.064 563.455 329.43C563.455 330.796 562.348 331.904 560.982 331.904C559.616 331.904 558.508 330.796 558.508 329.43Z" fill="white" fill-opacity="0.84" stroke="#E7EBF4" stroke-width="1"></path>
<path d="M553.562 320.849C553.562 319.483 554.669 318.375 556.035 318.375C557.401 318.375 558.508 319.483 558.508 320.849C558.508 322.214 557.401 323.322 556.035 323.322C554.669 323.322 553.562 322.214 553.562 320.849Z" fill="white" fill-opacity="0.84" stroke="#E7EBF4" stroke-width="1"></path>
<path d="M568.044 324.484C568.044 323.118 569.151 322.011 570.517 322.011C571.883 322.011 572.99 323.118 572.99 324.484C572.99 325.85 571.883 326.957 570.517 326.957C569.151 326.957 568.044 325.85 568.044 324.484Z" fill="white" fill-opacity="0.84" stroke="#E7EBF4" stroke-width="1"></path>
<path d="M561.935 315.902C561.935 314.536 563.042 313.429 564.408 313.429C565.774 313.429 566.882 314.536 566.882 315.902C566.882 317.268 565.774 318.375 564.408 318.375C563.042 318.375 561.935 317.268 561.935 315.902Z" fill="white" fill-opacity="0.84" stroke="#E7EBF4" stroke-width="1"></path>
<path d="M546.5 310.956C546.5 309.59 547.607 308.482 548.973 308.482C550.339 308.482 551.446 309.59 551.446 310.956C551.446 312.321 550.339 313.429 548.973 313.429C547.607 313.429 546.5 312.321 546.5 310.956Z" fill="white" fill-opacity="0.84" stroke="#E7EBF4" stroke-width="1"></path>
<path d="M556.035 306.009C556.035 304.643 557.142 303.536 558.508 303.536C559.874 303.536 560.982 304.643 560.982 306.009C560.982 307.375 559.874 308.482 558.508 308.482C557.142 308.482 556.035 307.375 556.035 306.009Z" fill="white" fill-opacity="0.84" stroke="#E7EBF4" stroke-width="1"></path>
<path d="M566.882 338.351C566.882 336.985 567.989 335.878 569.355 335.878C570.721 335.878 571.828 336.985 571.828 338.351C571.828 339.717 570.721 340.824 569.355 340.824C567.989 340.824 566.882 339.717 566.882 338.351Z" fill="white" fill-opacity="0.84" stroke="#E7EBF4" stroke-width="1"></path>
<path d="M469.955 225.286C469.955 223.92 471.062 222.813 472.428 222.813C473.794 222.813 474.901 223.92 474.901 225.286C474.901 226.652 473.794 227.759 472.428 227.759C471.062 227.759 469.955 226.652 469.955 225.286Z" fill="white" fill-opacity="0.84" stroke="#E7EBF4" stroke-width="1"></path>
<path d="M459.342 222.813C459.342 221.447 460.449 220.339 461.815 220.339C463.181 220.339 464.289 221.447 464.289 222.813C464.289 224.179 463.181 225.286 461.815 225.286C460.449 225.286 459.342 224.179 459.342 222.813Z" fill="white" fill-opacity="0.84" stroke="#E7EBF4" stroke-width="1"></path>
<path d="M447.928 217.866C447.928 216.5 449.036 215.393 450.402 215.393C451.768 215.393 452.875 216.5 452.875 217.866C452.875 219.232 451.768 220.339 450.402 220.339C449.036 220.339 447.928 219.232 447.928 217.866Z" fill="white" fill-opacity="0.84" stroke="#E7EBF4" stroke-width="1"></path>
<path d="M458.77 299.739C457.826 298.752 457.859 297.187 458.845 296.242C459.832 295.297 461.397 295.33 462.342 296.317C463.287 297.303 463.254 298.869 462.267 299.814C461.281 300.759 459.715 300.725 458.77 299.739Z" fill="white" fill-opacity="0.84" stroke="#E7EBF4" stroke-width="1"></path>
<path d="M445.268 308.629C444.323 307.643 444.357 306.077 445.343 305.133C446.33 304.188 447.895 304.221 448.84 305.208C449.785 306.194 449.752 307.76 448.765 308.705C447.779 309.649 446.213 309.616 445.268 308.629Z" fill="white" fill-opacity="0.84" stroke="#E7EBF4" stroke-width="1"></path>
<path d="M435.76 305.854C434.815 304.868 434.848 303.302 435.835 302.357C436.821 301.412 438.387 301.446 439.332 302.432C440.277 303.419 440.243 304.984 439.257 305.929C438.27 306.874 436.705 306.841 435.76 305.854Z" fill="white" fill-opacity="0.84" stroke="#E7EBF4" stroke-width="1"></path>
<path d="M448.732 298.461C447.787 297.475 447.821 295.909 448.807 294.964C449.794 294.019 451.359 294.053 452.304 295.039C453.249 296.026 453.215 297.591 452.229 298.536C451.243 299.481 449.677 299.448 448.732 298.461Z" fill="white" fill-opacity="0.84" stroke="#E7EBF4" stroke-width="1"></path>
<path d="M438.384 296.49C437.439 295.504 437.473 293.938 438.459 292.993C439.446 292.048 441.011 292.082 441.956 293.068C442.901 294.054 442.868 295.62 441.881 296.565C440.895 297.51 439.329 297.476 438.384 296.49Z" fill="white" fill-opacity="0.84" stroke="#E7EBF4" stroke-width="1"></path>
<path d="M423.816 303.596C422.872 302.609 422.905 301.044 423.892 300.099C424.878 299.154 426.444 299.187 427.388 300.174C428.333 301.16 428.3 302.726 427.313 303.671C426.327 304.616 424.761 304.582 423.816 303.596Z" fill="white" fill-opacity="0.84" stroke="#E7EBF4" stroke-width="1"></path>
<path d="M414.308 300.82C413.363 299.834 413.397 298.268 414.383 297.323C415.369 296.379 416.935 296.412 417.88 297.399C418.825 298.385 418.791 299.95 417.805 300.895C416.818 301.84 415.253 301.807 414.308 300.82Z" fill="white" fill-opacity="0.84" stroke="#E7EBF4" stroke-width="1"></path>
<path d="M427.28 293.427C426.335 292.441 426.369 290.875 427.355 289.93C428.342 288.986 429.907 289.019 430.852 290.006C431.797 290.992 431.764 292.558 430.777 293.502C429.791 294.447 428.225 294.414 427.28 293.427Z" fill="white" fill-opacity="0.84" stroke="#E7EBF4" stroke-width="1"></path>
<path d="M416.933 291.456C415.988 290.47 416.021 288.904 417.008 287.959C417.994 287.014 419.56 287.048 420.505 288.034C421.449 289.021 421.416 290.586 420.429 291.531C419.443 292.476 417.877 292.442 416.933 291.456Z" fill="white" fill-opacity="0.84" stroke="#E7EBF4" stroke-width="1"></path>
<path d="M457.486 309.279C456.541 308.293 456.574 306.727 457.561 305.782C458.547 304.837 460.113 304.871 461.058 305.857C462.003 306.843 461.969 308.409 460.983 309.354C459.996 310.299 458.431 310.265 457.486 309.279Z" fill="white" fill-opacity="0.84" stroke="#E7EBF4" stroke-width="1"></path>
<path d="M502.059 300.745C501.114 299.759 501.147 298.193 502.134 297.248C503.12 296.303 504.686 296.337 505.631 297.323C506.576 298.31 506.542 299.875 505.556 300.82C504.569 301.765 503.004 301.732 502.059 300.745Z" fill="white" fill-opacity="0.84" stroke="#E7EBF4" stroke-width="1"></path>
<path d="M492.129 326.412C491.184 325.426 491.217 323.86 492.204 322.915C493.19 321.971 494.756 322.004 495.701 322.991C496.646 323.977 496.612 325.543 495.626 326.487C494.639 327.432 493.074 327.399 492.129 326.412Z" fill="white" fill-opacity="0.84" stroke="#E7EBF4" stroke-width="1"></path>
<path d="M480.001 319.017C479.056 318.031 479.09 316.465 480.076 315.52C481.063 314.575 482.628 314.609 483.573 315.595C484.518 316.582 484.485 318.147 483.498 319.092C482.512 320.037 480.946 320.003 480.001 319.017Z" fill="white" fill-opacity="0.84" stroke="#E7EBF4" stroke-width="1"></path>
<path d="M492.054 300.745C491.109 299.759 491.142 298.193 492.129 297.248C493.115 296.303 494.681 296.337 495.626 297.323C496.57 298.31 496.537 299.875 495.55 300.82C494.564 301.765 492.998 301.732 492.054 300.745Z" fill="white" fill-opacity="0.84" stroke="#E7EBF4" stroke-width="1"></path>
<path d="M481.414 300.099C480.469 299.112 480.502 297.547 481.489 296.602C482.475 295.657 484.041 295.69 484.986 296.677C485.931 297.663 485.897 299.229 484.911 300.174C483.924 301.119 482.359 301.085 481.414 300.099Z" fill="white" fill-opacity="0.84" stroke="#E7EBF4" stroke-width="1"></path>
<path d="M467.03 310.411C466.085 309.425 466.118 307.859 467.105 306.914C468.091 305.969 469.657 306.003 470.602 306.989C471.547 307.976 471.513 309.541 470.527 310.486C469.54 311.431 467.975 311.398 467.03 310.411Z" fill="white" fill-opacity="0.84" stroke="#E7EBF4" stroke-width="1"></path>
<path d="M470.494 300.243C469.549 299.257 469.582 297.691 470.569 296.746C471.555 295.801 473.121 295.835 474.065 296.821C475.01 297.808 474.977 299.373 473.99 300.318C473.004 301.263 471.438 301.229 470.494 300.243Z" fill="white" fill-opacity="0.84" stroke="#E7EBF4" stroke-width="1"></path>
<path d="M501.909 329.984C500.964 328.998 500.997 327.432 501.984 326.487C502.97 325.543 504.536 325.576 505.481 326.563C506.425 327.549 506.392 329.115 505.405 330.059C504.419 331.004 502.853 330.971 501.909 329.984Z" fill="white" fill-opacity="0.84" stroke="#E7EBF4" stroke-width="1"></path>
<path d="M402.195 300.243C401.25 299.257 401.284 297.691 402.27 296.746C403.257 295.801 404.822 295.835 405.767 296.821C406.712 297.808 406.679 299.373 405.692 300.318C404.706 301.263 403.14 301.229 402.195 300.243Z" fill="white" fill-opacity="0.84" stroke="#E7EBF4" stroke-width="1"></path>
<path d="M391.972 299.739C391.027 298.752 391.061 297.187 392.047 296.242C393.034 295.297 394.599 295.33 395.544 296.317C396.489 297.303 396.455 298.869 395.469 299.814C394.483 300.759 392.917 300.725 391.972 299.739Z" fill="white" fill-opacity="0.84" stroke="#E7EBF4" stroke-width="1"></path>
<path d="M405.659 290.075C404.714 289.088 404.748 287.523 405.734 286.578C406.721 285.633 408.286 285.667 409.231 286.653C410.176 287.639 410.142 289.205 409.156 290.15C408.17 291.095 406.604 291.061 405.659 290.075Z" fill="white" fill-opacity="0.84" stroke="#E7EBF4" stroke-width="1"></path>
<path d="M394.57 289.57C393.625 288.584 393.658 287.018 394.645 286.074C395.631 285.129 397.197 285.162 398.142 286.149C399.087 287.135 399.053 288.701 398.067 289.646C397.08 290.59 395.515 290.557 394.57 289.57Z" fill="white" fill-opacity="0.84" stroke="#E7EBF4" stroke-width="1"></path>
<path d="M381.978 298.461C381.033 297.475 381.067 295.909 382.053 294.964C383.04 294.019 384.605 294.053 385.55 295.039C386.495 296.026 386.461 297.591 385.475 298.536C384.489 299.481 382.923 299.448 381.978 298.461Z" fill="white" fill-opacity="0.84" stroke="#E7EBF4" stroke-width="1"></path>
<path d="M371.777 296.888C370.832 295.902 370.866 294.336 371.852 293.391C372.838 292.446 374.404 292.48 375.349 293.466C376.294 294.453 376.26 296.018 375.274 296.963C374.287 297.908 372.722 297.875 371.777 296.888Z" fill="white" fill-opacity="0.84" stroke="#E7EBF4" stroke-width="1"></path>
<path d="M384.749 289.495C383.804 288.509 383.838 286.943 384.824 285.998C385.811 285.054 387.376 285.087 388.321 286.074C389.266 287.06 389.232 288.626 388.246 289.57C387.26 290.515 385.694 290.482 384.749 289.495Z" fill="white" fill-opacity="0.84" stroke="#E7EBF4" stroke-width="1"></path>
<path d="M374.401 287.524C373.457 286.538 373.49 284.972 374.477 284.027C375.463 283.082 377.029 283.116 377.973 284.102C378.918 285.089 378.885 286.654 377.898 287.599C376.912 288.544 375.346 288.51 374.401 287.524Z" fill="white" fill-opacity="0.84" stroke="#E7EBF4" stroke-width="1"></path>
<path d="M360.66 296.671C359.715 295.685 359.749 294.119 360.735 293.174C361.721 292.229 363.287 292.263 364.232 293.249C365.177 294.236 365.143 295.801 364.157 296.746C363.17 297.691 361.605 297.657 360.66 296.671Z" fill="white" fill-opacity="0.84" stroke="#E7EBF4" stroke-width="1"></path>
<path d="M341.621 283.952C340.676 282.966 340.71 281.4 341.696 280.455C342.682 279.51 344.248 279.544 345.193 280.53C346.138 281.517 346.104 283.082 345.118 284.027C344.132 284.972 342.566 284.938 341.621 283.952Z" fill="white" fill-opacity="0.84" stroke="#E7EBF4" stroke-width="1"></path>
<path d="M364.124 286.503C363.179 285.516 363.212 283.951 364.199 283.006C365.185 282.061 366.751 282.095 367.696 283.081C368.641 284.067 368.607 285.633 367.621 286.578C366.634 287.523 365.069 287.489 364.124 286.503Z" fill="white" fill-opacity="0.84" stroke="#E7EBF4" stroke-width="1"></path>
<path d="M353.776 284.531C352.831 283.545 352.865 281.98 353.851 281.035C354.837 280.09 356.403 280.123 357.348 281.11C358.293 282.096 358.259 283.662 357.273 284.607C356.287 285.551 354.721 285.518 353.776 284.531Z" fill="white" fill-opacity="0.84" stroke="#E7EBF4" stroke-width="1"></path>
<path d="M349.302 294.046C348.357 293.06 348.391 291.494 349.377 290.549C350.364 289.604 351.929 289.638 352.874 290.624C353.819 291.61 353.785 293.176 352.799 294.121C351.813 295.066 350.247 295.032 349.302 294.046Z" fill="white" fill-opacity="0.84" stroke="#E7EBF4" stroke-width="1"></path>
<path d="M502.134 309.098C501.189 308.111 501.222 306.546 502.209 305.601C503.195 304.656 504.761 304.69 505.706 305.676C506.651 306.662 506.617 308.228 505.631 309.173C504.644 310.118 503.079 310.084 502.134 309.098Z" fill="white" fill-opacity="0.84" stroke="#E7EBF4" stroke-width="1"></path>
<path d="M492.054 308.705C491.109 307.718 491.142 306.153 492.129 305.208C493.115 304.263 494.681 304.296 495.626 305.283C496.57 306.269 496.537 307.835 495.55 308.78C494.564 309.724 492.998 309.691 492.054 308.705Z" fill="white" fill-opacity="0.84" stroke="#E7EBF4" stroke-width="1"></path>
<path d="M480.076 309.279C479.131 308.293 479.165 306.727 480.151 305.782C481.138 304.837 482.703 304.871 483.648 305.857C484.593 306.843 484.56 308.409 483.573 309.354C482.587 310.299 481.021 310.265 480.076 309.279Z" fill="white" fill-opacity="0.84" stroke="#E7EBF4" stroke-width="1"></path>
<path d="M501.833 319.957C500.889 318.971 500.922 317.405 501.909 316.46C502.895 315.515 504.461 315.549 505.405 316.535C506.35 317.522 506.317 319.087 505.33 320.032C504.344 320.977 502.778 320.943 501.833 319.957Z" fill="white" fill-opacity="0.84" stroke="#E7EBF4" stroke-width="1"></path>
<path d="M491.978 318.942C491.034 317.956 491.067 316.39 492.054 315.445C493.04 314.5 494.606 314.534 495.55 315.52C496.495 316.506 496.462 318.072 495.475 319.017C494.489 319.962 492.923 319.928 491.978 318.942Z" fill="white" fill-opacity="0.84" stroke="#E7EBF4" stroke-width="1"></path>
<path d="M501.908 340.795C500.963 339.809 500.997 338.243 501.983 337.298C502.97 336.353 504.535 336.387 505.48 337.373C506.425 338.359 506.392 339.925 505.405 340.87C504.419 341.815 502.853 341.781 501.908 340.795Z" fill="white" fill-opacity="0.84" stroke="#E7EBF4" stroke-width="1"></path>
<path d="M512.034 329.984C511.089 328.998 511.122 327.432 512.109 326.487C513.095 325.543 514.661 325.576 515.606 326.563C516.55 327.549 516.517 329.115 515.531 330.059C514.544 331.004 512.979 330.971 512.034 329.984Z" fill="white" fill-opacity="0.84" stroke="#E7EBF4" stroke-width="1"></path>
<path d="M511.959 319.957C511.014 318.971 511.047 317.405 512.034 316.46C513.02 315.515 514.586 315.549 515.53 316.535C516.475 317.522 516.442 319.087 515.455 320.032C514.469 320.977 512.903 320.944 511.959 319.957Z" fill="white" fill-opacity="0.84" stroke="#E7EBF4" stroke-width="1"></path>
<path d="M512.033 340.795C511.089 339.809 511.122 338.243 512.109 337.298C513.095 336.353 514.661 336.387 515.605 337.373C516.55 338.359 516.517 339.925 515.53 340.87C514.544 341.815 512.978 341.781 512.033 340.795Z" fill="white" fill-opacity="0.84" stroke="#E7EBF4" stroke-width="1"></path>
<path d="M522.381 329.985C521.436 328.998 521.47 327.433 522.456 326.488C523.443 325.543 525.008 325.576 525.953 326.563C526.898 327.549 526.864 329.115 525.878 330.06C524.892 331.005 523.326 330.971 522.381 329.985Z" fill="white" fill-opacity="0.84" stroke="#E7EBF4" stroke-width="1"></path>
<path d="M522.381 340.795C521.436 339.809 521.47 338.243 522.456 337.298C523.442 336.353 525.008 336.387 525.953 337.373C526.898 338.36 526.864 339.925 525.878 340.87C524.892 341.815 523.326 341.782 522.381 340.795Z" fill="white" fill-opacity="0.84" stroke="#E7EBF4" stroke-width="1"></path>
<path d="M521.249 319.092C520.304 318.106 520.337 316.54 521.324 315.595C522.31 314.65 523.876 314.684 524.821 315.67C525.765 316.657 525.732 318.222 524.745 319.167C523.759 320.112 522.193 320.078 521.249 319.092Z" fill="white" fill-opacity="0.84" stroke="#E7EBF4" stroke-width="1"></path>
<path d="M505.631 351.456C504.686 350.469 504.719 348.904 505.706 347.959C506.692 347.014 508.258 347.048 509.203 348.034C510.148 349.02 510.114 350.586 509.128 351.531C508.141 352.476 506.576 352.442 505.631 351.456Z" fill="white" fill-opacity="0.84" stroke="#E7EBF4" stroke-width="1"></path>
<path d="M515.756 351.456C514.811 350.469 514.844 348.904 515.831 347.959C516.817 347.014 518.383 347.048 519.328 348.034C520.273 349.02 520.239 350.586 519.253 351.531C518.266 352.476 516.701 352.442 515.756 351.456Z" fill="white" fill-opacity="0.84" stroke="#E7EBF4" stroke-width="1"></path>
<path d="M526.103 351.456C525.158 350.47 525.192 348.904 526.178 347.959C527.165 347.014 528.73 347.048 529.675 348.034C530.62 349.021 530.587 350.586 529.6 351.531C528.614 352.476 527.048 352.442 526.103 351.456Z" fill="white" fill-opacity="0.84" stroke="#E7EBF4" stroke-width="1"></path>
<path d="M331.252 283.877C330.307 282.891 330.34 281.325 331.327 280.38C332.313 279.435 333.879 279.469 334.824 280.455C335.768 281.441 335.735 283.007 334.748 283.952C333.762 284.897 332.196 284.863 331.252 283.877Z" fill="white" fill-opacity="0.84" stroke="#E7EBF4" stroke-width="1"></path>
<path d="M148.612 248.651C147.667 247.664 147.7 246.099 148.687 245.154C149.673 244.209 151.239 244.242 152.184 245.229C153.129 246.215 153.095 247.781 152.109 248.726C151.122 249.671 149.557 249.637 148.612 248.651Z" fill="#2563EB" stroke="#E7EBF4" stroke-width="1"></path>
<path d="M161.002 257.6C160.057 256.614 160.091 255.048 161.077 254.103C162.064 253.158 163.629 253.192 164.574 254.178C165.519 255.164 165.485 256.73 164.499 257.675C163.513 258.62 161.947 258.586 161.002 257.6Z" fill="#2563EB" stroke="#E7EBF4" stroke-width="1"></path>
<path d="M170.915 257.6C169.97 256.613 170.003 255.048 170.99 254.103C171.976 253.158 173.542 253.192 174.487 254.178C175.431 255.164 175.398 256.73 174.411 257.675C173.425 258.62 171.859 258.586 170.915 257.6Z" fill="#2563EB" stroke="#E7EBF4" stroke-width="1"></path>
<path d="M164.324 266.931C163.379 265.944 163.413 264.379 164.399 263.434C165.386 262.489 166.951 262.523 167.896 263.509C168.841 264.495 168.807 266.061 167.821 267.006C166.835 267.951 165.269 267.917 164.324 266.931Z" fill="#2563EB" stroke="#E7EBF4" stroke-width="1"></path>
<path d="M174.411 266.856C173.467 265.869 173.5 264.304 174.487 263.359C175.473 262.414 177.039 262.448 177.983 263.434C178.928 264.42 178.895 265.986 177.908 266.931C176.922 267.876 175.356 267.842 174.411 266.856Z" fill="#2563EB" stroke="#E7EBF4" stroke-width="1"></path>
<path d="M175.06 275.698C174.116 274.712 174.149 273.146 175.136 272.201C176.122 271.257 177.688 271.29 178.632 272.277C179.577 273.263 179.544 274.829 178.557 275.773C177.571 276.718 176.005 276.685 175.06 275.698Z" fill="#2563EB" stroke="#E7EBF4" stroke-width="1"></path>
<path d="M159.375 248.651C158.43 247.664 158.464 246.099 159.45 245.154C160.436 244.209 162.002 244.242 162.947 245.229C163.892 246.215 163.858 247.781 162.872 248.726C161.885 249.671 160.32 249.637 159.375 248.651Z" fill="#2563EB" stroke="#E7EBF4" stroke-width="1"></path>
<path d="M373.876 43.0766C372.931 42.0902 372.965 40.5246 373.951 39.5797C374.937 38.6348 376.503 38.6684 377.448 39.6548C378.393 40.6411 378.359 42.2067 377.373 43.1517C376.386 44.0966 374.821 44.063 373.876 43.0766Z" fill="#60A5FA" stroke="#E7EBF4" stroke-width="1"></path>
<path d="M386.266 52.0258C385.321 51.0395 385.355 49.4738 386.341 48.5289C387.328 47.584 388.893 47.6176 389.838 48.604C390.783 49.5904 390.749 51.156 389.763 52.1009C388.777 53.0458 387.211 53.0122 386.266 52.0258Z" fill="#60A5FA" stroke="#E7EBF4" stroke-width="1"></path>
<path d="M397.636 52.7663C396.691 51.7799 396.725 50.2143 397.711 49.2694C398.698 48.3245 400.263 48.3581 401.208 49.3445C402.153 50.3308 402.12 51.8965 401.133 52.8414C400.147 53.7863 398.581 53.7527 397.636 52.7663Z" fill="#60A5FA" stroke="#E7EBF4" stroke-width="1"></path>
<path d="M389.588 61.3567C388.643 60.3703 388.677 58.8047 389.663 57.8598C390.65 56.9149 392.215 56.9485 393.16 57.9349C394.105 58.9212 394.071 60.4868 393.085 61.4318C392.099 62.3767 390.533 62.3431 389.588 61.3567Z" fill="#60A5FA" stroke="#E7EBF4" stroke-width="1"></path>
<path d="M400.32 63.4499C399.375 62.4635 399.409 60.8979 400.395 59.953C401.382 59.0081 402.947 59.0417 403.892 60.0281C404.837 61.0144 404.804 62.5801 403.817 63.525C402.831 64.4699 401.265 64.4363 400.32 63.4499Z" fill="#60A5FA" stroke="#E7EBF4" stroke-width="1"></path>
<path d="M401.874 72.757C400.929 71.7706 400.962 70.205 401.949 69.26C402.935 68.3151 404.501 68.3487 405.446 69.3351C406.391 70.3215 406.357 71.8871 405.371 72.832C404.384 73.7769 402.819 73.7433 401.874 72.757Z" fill="#60A5FA" stroke="#E7EBF4" stroke-width="1"></path>
<path d="M384.639 43.0766C383.694 42.0902 383.728 40.5246 384.714 39.5797C385.7 38.6348 387.266 38.6684 388.211 39.6548C389.156 40.6411 389.122 42.2067 388.136 43.1517C387.15 44.0966 385.584 44.063 384.639 43.0766Z" fill="#60A5FA" stroke="#E7EBF4" stroke-width="1"></path>
<path d="M394.064 43.0015C393.12 42.0152 393.153 40.4495 394.139 39.5046C395.126 38.5597 396.691 38.5933 397.636 39.5797C398.581 40.5661 398.548 42.1317 397.561 43.0766C396.575 44.0215 395.009 43.9879 394.064 43.0015Z" fill="#60A5FA" stroke="#E7EBF4" stroke-width="1"></path>
<path d="M405.296 81.8733C404.351 80.887 404.384 79.3214 405.371 78.3764C406.357 77.4315 407.923 77.4651 408.868 78.4515C409.812 79.4379 409.779 81.0035 408.792 81.9484C407.806 82.8933 406.24 82.8597 405.296 81.8733Z" fill="#60A5FA" stroke="#E7EBF4" stroke-width="1"></path>
<g opacity="0.5">
<path d="M607.908 51.9499C606.963 50.9635 606.997 49.3979 607.983 48.453C608.97 47.5081 610.535 47.5417 611.48 48.5281C612.425 49.5144 612.392 51.0801 611.405 52.025C610.419 52.9699 608.853 52.9363 607.908 51.9499Z" fill="#737F95" stroke="#E7EBF4" stroke-width="1"></path>
<path d="M620.243 59.3702C619.298 58.3838 619.331 56.8182 620.318 55.8733C621.304 54.9284 622.87 54.962 623.815 55.9484C624.76 56.9348 624.726 58.5004 623.74 59.4453C622.753 60.3902 621.188 60.3566 620.243 59.3702Z" fill="#737F95" stroke="#E7EBF4" stroke-width="1"></path>
<path d="M630.156 59.3702C629.211 58.3838 629.245 56.8182 630.231 55.8733C631.217 54.9284 632.783 54.962 633.728 55.9484C634.673 56.9348 634.639 58.5004 633.653 59.4453C632.666 60.3902 631.101 60.3566 630.156 59.3702Z" fill="#737F95" stroke="#E7EBF4" stroke-width="1"></path>
<path d="M623.815 68.7217C622.87 67.7353 622.903 66.1697 623.89 65.2248C624.876 64.2799 626.442 64.3135 627.387 65.2998C628.332 66.2862 628.298 67.8518 627.312 68.7968C626.325 69.7417 624.76 69.7081 623.815 68.7217Z" fill="#737F95" stroke="#E7EBF4" stroke-width="1"></path>
<path d="M632.84 70.0538C631.895 69.0675 631.929 67.5018 632.915 66.5569C633.901 65.612 635.467 65.6456 636.412 66.632C637.357 67.6184 637.323 69.184 636.337 70.1289C635.35 71.0738 633.785 71.0402 632.84 70.0538Z" fill="#737F95" stroke="#E7EBF4" stroke-width="1"></path>
<path d="M634.393 79.3609C633.448 78.3745 633.482 76.8089 634.468 75.864C635.455 74.919 637.02 74.9527 637.965 75.939C638.91 76.9254 638.877 78.491 637.89 79.4359C636.904 80.3808 635.338 80.3472 634.393 79.3609Z" fill="#737F95" stroke="#E7EBF4" stroke-width="1"></path>
<path d="M616.616 50.4462C615.671 49.4598 615.704 47.8942 616.691 46.9492C617.677 46.0043 619.243 46.0379 620.188 47.0243C621.133 48.0107 621.099 49.5763 620.113 50.5212C619.126 51.4661 617.561 51.4325 616.616 50.4462Z" fill="#737F95" stroke="#E7EBF4" stroke-width="1"></path>
<path d="M626.659 48.5279C625.714 47.5416 625.748 45.9759 626.734 45.031C627.72 44.0861 629.286 44.1197 630.231 45.1061C631.176 46.0925 631.142 47.6581 630.156 48.603C629.17 49.5479 627.604 49.5143 626.659 48.5279Z" fill="#737F95" stroke="#E7EBF4" stroke-width="1"></path>
<path d="M637.815 88.4773C636.87 87.4909 636.904 85.9253 637.89 84.9804C638.877 84.0354 640.442 84.0691 641.387 85.0554C642.332 86.0418 642.298 87.6074 641.312 88.5523C640.326 89.4972 638.76 89.4636 637.815 88.4773Z" fill="#737F95" stroke="#E7EBF4" stroke-width="1"></path>
</g>
<path d="M28.3078 200.081C27.5561 199.296 27.5829 198.051 28.3676 197.299C29.1523 196.548 30.3978 196.574 31.1495 197.359C31.9012 198.144 31.8744 199.389 31.0897 200.141C30.3051 200.893 29.0596 200.866 28.3078 200.081Z" fill="#2563EB" stroke="#E7EBF4" stroke-width="1"></path>
<path d="M38.1647 207.201C37.413 206.416 37.4397 205.17 38.2244 204.419C39.0091 203.667 40.2546 203.694 41.0063 204.478C41.758 205.263 41.7313 206.509 40.9466 207.26C40.1619 208.012 38.9164 207.985 38.1647 207.201Z" fill="#2563EB" stroke="#E7EBF4" stroke-width="1"></path>
<path d="M46.0504 207.201C45.2987 206.416 45.3254 205.17 46.1101 204.419C46.8948 203.667 48.1403 203.694 48.892 204.478C49.6437 205.263 49.617 206.509 48.8323 207.26C48.0476 208.012 46.8021 207.985 46.0504 207.201Z" fill="#2563EB" stroke="#E7EBF4" stroke-width="1"></path>
<path d="M40.8075 214.624C40.0558 213.839 40.0825 212.593 40.8672 211.842C41.6519 211.09 42.8974 211.117 43.6491 211.901C44.4008 212.686 44.3741 213.932 43.5894 214.683C42.8047 215.435 41.5592 215.408 40.8075 214.624Z" fill="#2563EB" stroke="#E7EBF4" stroke-width="1"></path>
<path d="M48.8323 214.564C48.0806 213.779 48.1073 212.534 48.892 211.782C49.6767 211.03 50.9222 211.057 51.6739 211.842C52.4256 212.626 52.3989 213.872 51.6142 214.624C50.8295 215.375 49.584 215.349 48.8323 214.564Z" fill="#2563EB" stroke="#E7EBF4" stroke-width="1"></path>
<path d="M49.3486 221.599C48.5969 220.814 48.6236 219.568 49.4083 218.817C50.193 218.065 51.4385 218.092 52.1902 218.876C52.9419 219.661 52.9152 220.907 52.1305 221.658C51.3458 222.41 50.1003 222.383 49.3486 221.599Z" fill="#2563EB" stroke="#E7EBF4" stroke-width="1"></path>
<path d="M36.8703 200.081C36.1186 199.296 36.1453 198.051 36.93 197.299C37.7147 196.548 38.9602 196.574 39.7119 197.359C40.4636 198.144 40.4369 199.389 39.6522 200.141C38.8675 200.893 37.622 200.866 36.8703 200.081Z" fill="#2563EB" stroke="#E7EBF4" stroke-width="1"></path>
<path d="M100.859 362.241C100.107 361.456 100.134 360.211 100.918 359.459C101.703 358.707 102.949 358.734 103.7 359.519C104.452 360.304 104.425 361.549 103.641 362.301C102.856 363.052 101.61 363.026 100.859 362.241Z" fill="#2563EB" stroke="#E7EBF4" stroke-width="1"></path>
<path d="M110.715 369.36C109.964 368.576 109.991 367.33 110.775 366.579C111.56 365.827 112.805 365.854 113.557 366.638C114.309 367.423 114.282 368.668 113.497 369.42C112.713 370.172 111.467 370.145 110.715 369.36Z" fill="#2563EB" stroke="#E7EBF4" stroke-width="1"></path>
<path d="M118.601 369.36C117.849 368.576 117.876 367.33 118.661 366.578C119.446 365.827 120.691 365.853 121.443 366.638C122.194 367.423 122.168 368.668 121.383 369.42C120.598 370.172 119.353 370.145 118.601 369.36Z" fill="#2563EB" stroke="#E7EBF4" stroke-width="1"></path>
<path d="M118.541 376.475C117.79 375.69 117.816 374.444 118.601 373.693C119.386 372.941 120.631 372.968 121.383 373.752C122.135 374.537 122.108 375.783 121.323 376.534C120.539 377.286 119.293 377.259 118.541 376.475Z" fill="#2563EB" stroke="#E7EBF4" stroke-width="1"></path>
<path d="M109.421 362.241C108.669 361.456 108.696 360.211 109.481 359.459C110.265 358.707 111.511 358.734 112.263 359.519C113.014 360.304 112.988 361.549 112.203 362.301C111.418 363.052 110.173 363.026 109.421 362.241Z" fill="#2563EB" stroke="#E7EBF4" stroke-width="1"></path>
<path d="M117.866 362.301C117.115 361.516 117.142 360.271 117.926 359.519C118.711 358.767 119.956 358.794 120.708 359.579C121.46 360.363 121.433 361.609 120.648 362.36C119.864 363.112 118.618 363.085 117.866 362.301Z" fill="#2563EB" stroke="#E7EBF4" stroke-width="1"></path>
<path d="M118.541 383.402C117.79 382.617 117.816 381.372 118.601 380.62C119.386 379.868 120.631 379.895 121.383 380.68C122.135 381.464 122.108 382.71 121.323 383.462C120.539 384.213 119.293 384.186 118.541 383.402Z" fill="#2563EB" stroke="#E7EBF4" stroke-width="1"></path>
<path d="M214.839 476.577C214.087 475.792 214.114 474.547 214.899 473.795C215.684 473.043 216.929 473.07 217.681 473.855C218.433 474.639 218.406 475.885 217.621 476.637C216.836 477.388 215.591 477.362 214.839 476.577Z" fill="#2563EB" stroke="#E7EBF4" stroke-width="1"></path>
<path d="M224.696 483.696C223.944 482.912 223.971 481.666 224.756 480.914C225.54 480.163 226.786 480.189 227.538 480.974C228.289 481.759 228.263 483.004 227.478 483.756C226.693 484.508 225.448 484.481 224.696 483.696Z" fill="#2563EB" stroke="#E7EBF4" stroke-width="1"></path>
<path d="M232.582 483.696C231.83 482.912 231.857 481.666 232.641 480.914C233.426 480.163 234.672 480.189 235.423 480.974C236.175 481.759 236.148 483.004 235.364 483.756C234.579 484.508 233.333 484.481 232.582 483.696Z" fill="#2563EB" stroke="#E7EBF4" stroke-width="1"></path>
<path d="M232.522 490.811C231.77 490.026 231.797 488.78 232.582 488.029C233.366 487.277 234.612 487.304 235.364 488.088C236.115 488.873 236.089 490.119 235.304 490.87C234.519 491.622 233.274 491.595 232.522 490.811Z" fill="#2563EB" stroke="#E7EBF4" stroke-width="1"></path>
<path d="M223.402 476.577C222.65 475.792 222.677 474.547 223.461 473.795C224.246 473.043 225.492 473.07 226.243 473.855C226.995 474.639 226.968 475.885 226.184 476.637C225.399 477.388 224.153 477.362 223.402 476.577Z" fill="#2563EB" stroke="#E7EBF4" stroke-width="1"></path>
<path d="M231.847 476.637C231.095 475.852 231.122 474.606 231.907 473.855C232.691 473.103 233.937 473.13 234.689 473.914C235.44 474.699 235.414 475.945 234.629 476.696C233.844 477.448 232.599 477.421 231.847 476.637Z" fill="#2563EB" stroke="#E7EBF4" stroke-width="1"></path>
<path d="M232.522 497.738C231.77 496.953 231.797 495.708 232.582 494.956C233.366 494.204 234.612 494.231 235.364 495.016C236.115 495.8 236.089 497.046 235.304 497.797C234.519 498.549 233.274 498.522 232.522 497.738Z" fill="#2563EB" stroke="#E7EBF4" stroke-width="1"></path>
<defs>
<filter id="filter0_d" x="451.105" y="96.9805" width="45.9037" height="45.9037" filterUnits="userSpaceOnUse" color-interpolation-filters="sRGB">
<feFlood flood-opacity="0" result="BackgroundImageFix"></feFlood>
<feColorMatrix in="SourceAlpha" type="matrix" values="0 0 0 0 0 0 0 0 0 0 0 0 0 0 0 0 0 0 127 0"></feColorMatrix>
<feOffset dy="10"></feOffset>
<fegaussianblur stdDeviation="10"></fegaussianblur>
<feColorMatrix type="matrix" values="0 0 0 0 0 0 0 0 0 0 0 0 0 0 0 0 0 0 0.15 0"></feColorMatrix>
<feBlend mode="normal" in2="BackgroundImageFix" result="effect1_dropShadow"></feBlend>
<feBlend mode="normal" in="SourceGraphic" in2="effect1_dropShadow" result="shape"></feBlend>
</filter>
</defs>
</svg>