<svg width="200" height="150" viewBox="0 0 800 600" fill="none" xmlns="http://www.w3.org/2000/svg">
<path d="M711.317 243.986L26.3164 337.671L368.837 513.913L790.001 277.708L711.317 243.986Z" fill="none" stroke="#E7EBF4" stroke-width="1"></path>
<path d="M10 341.897L471.196 87L761.045 211.942L367.089 468.844L10 341.897Z" fill="#2563EB" stroke="#E7EBF4" stroke-width="1"></path>
<path d="M319.871 419.361L191.586 371.981L297.115 309.159L425.4 356.539L319.871 419.361Z" fill="none" stroke="#E7EBF4" stroke-width="1"></path>
<path d="M305.648 388.128L177.363 340.748L282.893 277.926L411.177 325.306L305.648 388.128Z" fill="#60A5FA" stroke="#E7EBF4" stroke-width="1"></path>
<path d="M343.197 321.093C339.214 321.093 335.517 321.093 331.25 322.146C319.303 325.305 307.641 328.814 295.979 332.675C289.152 334.781 281.756 338.992 274.645 340.045C274.645 332.324 273.792 322.497 271.801 315.478" stroke="#E7EBF4" stroke-width="1" stroke-miterlimit="10" stroke-linecap="round"></path>
<path d="M324.922 224.313L480.573 295.144" stroke="#E7EBF4" stroke-width="1" stroke-linecap="round"></path>
<path d="M394.473 188.896L550.124 259.727" stroke="#E7EBF4" stroke-width="1" stroke-linecap="round"></path>
<path d="M464.02 153.479L619.671 224.311" stroke="#E7EBF4" stroke-width="1" stroke-linecap="round"></path>
</svg>