<svg width="200" height="150" viewBox="0 0 800 600" fill="none" xmlns="http://www.w3.org/2000/svg">
<path d="M754.793 557.881C765.387 557.881 774.086 549.74 774.866 539.258C776.874 512.494 776.204 466.326 748.883 465.322C710.298 463.984 687.549 506.36 687.549 506.36C687.549 506.36 710.075 392.836 632.125 391.164C554.174 389.491 531.202 518.627 531.202 518.627C531.202 518.627 416.117 495.209 400.616 521.192C395.709 529.444 399.612 539.481 404.184 547.064C408.311 553.867 415.782 557.993 423.7 557.993H754.793V557.881Z" fill="#2563EB" stroke="#E7EBF4" stroke-width="1"></path>
<path opacity="0.05" d="M377.642 484.503H300.807C299.58 484.503 298.576 483.499 298.576 482.272V405.437C298.576 404.211 299.58 403.207 300.807 403.207H377.642C378.868 403.207 379.872 404.211 379.872 405.437V482.272C379.872 483.499 378.868 484.503 377.642 484.503Z" fill="black" stroke="#E7EBF4" stroke-width="1"></path>
<path opacity="0.05" d="M501.317 484.503H424.482C423.256 484.503 422.252 483.499 422.252 482.272V405.437C422.252 404.211 423.256 403.207 424.482 403.207H501.317C502.544 403.207 503.548 404.211 503.548 405.437V482.272C503.548 483.499 502.544 484.503 501.317 484.503Z" fill="black" stroke="#E7EBF4" stroke-width="1"></path>
<path opacity="0.08" d="M624.987 484.503H548.152C546.926 484.503 545.922 483.499 545.922 482.272V405.437C545.922 404.211 546.926 403.207 548.152 403.207H624.987C626.214 403.207 627.218 404.211 627.218 405.437V482.272C627.218 483.499 626.214 484.503 624.987 484.503Z" fill="black" stroke="#E7EBF4" stroke-width="1"></path>
<path opacity="0.05" d="M748.659 484.503H671.824C670.597 484.503 669.594 483.499 669.594 482.272V405.437C669.594 404.211 670.597 403.207 671.824 403.207H748.659C749.886 403.207 750.89 404.211 750.89 405.437V482.272C750.89 483.499 749.886 484.503 748.659 484.503Z" fill="black" stroke="#E7EBF4" stroke-width="1"></path>
<path opacity="0.05" d="M253.968 484.503H177.133C175.906 484.503 174.902 483.499 174.902 482.272V405.437C174.902 404.211 175.906 403.207 177.133 403.207H253.968C255.194 403.207 256.198 404.211 256.198 405.437V482.272C256.198 483.499 255.194 484.503 253.968 484.503Z" fill="black" stroke="#E7EBF4" stroke-width="1"></path>
<path opacity="0.05" d="M130.298 484.503H53.4628C52.2361 484.503 51.2324 483.499 51.2324 482.272V405.437C51.2324 404.211 52.2361 403.207 53.4628 403.207H130.298C131.525 403.207 132.528 404.211 132.528 405.437V482.272C132.528 483.499 131.525 484.503 130.298 484.503Z" fill="black" stroke="#E7EBF4" stroke-width="1"></path>
<path d="M432.619 478.929C432.619 465.881 443.213 455.287 456.261 455.287C469.308 455.287 479.902 465.881 479.902 478.929H432.619Z" fill="none" stroke="#E7EBF4" stroke-width="1"></path>
<path d="M81.8993 442.35C90.4601 442.35 97.4001 435.41 97.4001 426.849C97.4001 418.289 90.4601 411.349 81.8993 411.349C73.3384 411.349 66.3984 418.289 66.3984 426.849C66.3984 435.41 73.3384 442.35 81.8993 442.35Z" fill="#60A5FA" stroke="#E7EBF4" stroke-width="1"></path>
<path d="M54.2441 479.15C54.2441 463.873 66.6225 451.494 81.9003 451.494C97.1781 451.494 109.556 463.873 109.556 479.15H54.2441Z" fill="#60A5FA" stroke="#E7EBF4" stroke-width="1"></path>
<path d="M205.575 442.351C214.136 442.351 221.076 435.411 221.076 426.85C221.076 418.29 214.136 411.35 205.575 411.35C197.014 411.35 190.074 418.29 190.074 426.85C190.074 435.411 197.014 442.351 205.575 442.351Z" fill="#2563EB" stroke="#E7EBF4" stroke-width="1"></path>
<path d="M234.457 480.267H176.914V479.152C176.914 463.317 189.85 450.381 205.685 450.381C221.521 450.381 234.457 463.317 234.457 479.152V480.267V480.267ZM179.033 478.037H232.115C231.557 463.874 219.848 452.611 205.574 452.611C191.3 452.611 179.702 463.874 179.033 478.037Z" fill="#323C66" stroke="#E7EBF4" stroke-width="1"></path>
<path d="M331.583 442.24C338.85 442.24 344.742 436.348 344.742 429.081C344.742 421.813 338.85 415.922 331.583 415.922C324.315 415.922 318.424 421.813 318.424 429.081C318.424 436.348 324.315 442.24 331.583 442.24Z" fill="none" stroke="#E7EBF4" stroke-width="1"></path>
<path d="M329.243 443.465C320.099 443.465 312.627 435.994 312.627 426.849C312.627 417.705 320.099 410.233 329.243 410.233C338.387 410.233 345.859 417.705 345.859 426.849C345.859 435.994 338.387 443.465 329.243 443.465ZM329.243 412.464C321.325 412.464 314.857 418.932 314.857 426.849C314.857 434.767 321.325 441.235 329.243 441.235C337.161 441.235 343.629 434.767 343.629 426.849C343.629 418.932 337.161 412.464 329.243 412.464Z" fill="#323C66" stroke="#E7EBF4" stroke-width="1"></path>
<path d="M301.586 479.15C301.586 463.873 313.964 451.494 329.242 451.494C344.52 451.494 356.898 463.873 356.898 479.15H301.586Z" fill="#60A5FA" stroke="#E7EBF4" stroke-width="1"></path>
<path d="M453.026 443.465C443.882 443.465 436.41 435.994 436.41 426.849C436.41 417.705 443.882 410.233 453.026 410.233C462.171 410.233 469.642 417.705 469.642 426.849C469.642 435.994 462.059 443.465 453.026 443.465ZM453.026 412.464C445.108 412.464 438.64 418.932 438.64 426.849C438.64 434.767 445.108 441.235 453.026 441.235C460.944 441.235 467.412 434.767 467.412 426.849C467.412 418.932 460.832 412.464 453.026 412.464Z" fill="#323C66" stroke="#E7EBF4" stroke-width="1"></path>
<path d="M481.797 480.266H424.143V479.151C424.143 463.316 437.079 450.38 452.914 450.38C468.749 450.38 481.685 463.316 481.685 479.151V480.266H481.797ZM426.484 478.036H479.566C479.009 463.873 467.3 452.61 453.025 452.61C438.751 452.61 427.042 463.873 426.484 478.036Z" fill="#323C66" stroke="#E7EBF4" stroke-width="1"></path>
<path d="M548.934 479.15C548.934 463.873 561.312 451.494 576.59 451.494C591.868 451.494 604.246 463.873 604.246 479.15H548.934Z" fill="#60A5FA" stroke="#E7EBF4" stroke-width="1"></path>
<path d="M576.7 442.35C585.261 442.35 592.201 435.41 592.201 426.849C592.201 418.289 585.261 411.349 576.7 411.349C568.139 411.349 561.199 418.289 561.199 426.849C561.199 435.41 568.139 442.35 576.7 442.35Z" fill="none" stroke="#E7EBF4" stroke-width="1"></path>
<path d="M700.374 442.351C708.935 442.351 715.875 435.411 715.875 426.85C715.875 418.29 708.935 411.35 700.374 411.35C691.813 411.35 684.873 418.29 684.873 426.85C684.873 435.411 691.813 442.351 700.374 442.351Z" fill="#60A5FA" stroke="#E7EBF4" stroke-width="1"></path>
<path d="M672.605 479.152C672.605 463.874 684.984 451.496 700.262 451.496C715.539 451.496 727.918 463.874 727.918 479.152H672.605Z" fill="none" stroke="#E7EBF4" stroke-width="1"></path>
<path d="M111.45 292.919H30.1543V374.215H111.45V292.919Z" fill="#60A5FA" stroke="#E7EBF4" stroke-width="1"></path>
<path d="M244.046 480.266H167.211C165.315 480.266 163.865 478.817 163.865 476.921V400.086C163.865 398.19 165.315 396.74 167.211 396.74H244.046C245.942 396.74 247.391 398.19 247.391 400.086V476.921C247.391 478.705 245.942 480.266 244.046 480.266ZM167.211 398.971C166.542 398.971 166.096 399.417 166.096 400.086V476.921C166.096 477.59 166.542 478.036 167.211 478.036H244.046C244.715 478.036 245.161 477.59 245.161 476.921V400.086C245.161 399.417 244.715 398.971 244.046 398.971H167.211V398.971Z" fill="#323C66" stroke="#E7EBF4" stroke-width="1"></path>
<path d="M120.372 480.266H43.5369C41.6411 480.266 40.1914 478.817 40.1914 476.921V400.086C40.1914 398.19 41.6411 396.74 43.5369 396.74H120.372C122.268 396.74 123.717 398.19 123.717 400.086V476.921C123.717 478.705 122.156 480.266 120.372 480.266ZM43.5369 398.971C42.8678 398.971 42.4217 399.417 42.4217 400.086V476.921C42.4217 477.59 42.8678 478.036 43.5369 478.036H120.372C121.041 478.036 121.487 477.59 121.487 476.921V400.086C121.487 399.417 121.041 398.971 120.372 398.971H43.5369V398.971Z" fill="#323C66" stroke="#E7EBF4" stroke-width="1"></path>
<path d="M367.716 480.266H290.881C288.985 480.266 287.535 478.817 287.535 476.921V400.086C287.535 398.19 288.985 396.74 290.881 396.74H367.716C369.612 396.74 371.061 398.19 371.061 400.086V476.921C371.061 478.705 369.612 480.266 367.716 480.266ZM290.881 398.971C290.212 398.971 289.765 399.417 289.765 400.086V476.921C289.765 477.59 290.212 478.036 290.881 478.036H367.716C368.385 478.036 368.831 477.59 368.831 476.921V400.086C368.831 399.417 368.385 398.971 367.716 398.971H290.881V398.971Z" fill="#323C66" stroke="#E7EBF4" stroke-width="1"></path>
<path d="M491.388 480.266H414.553C412.657 480.266 411.207 478.817 411.207 476.921V400.086C411.207 398.19 412.657 396.74 414.553 396.74H491.388C493.283 396.74 494.733 398.19 494.733 400.086V476.921C494.733 478.705 493.283 480.266 491.388 480.266ZM414.553 398.971C413.883 398.971 413.437 399.417 413.437 400.086V476.921C413.437 477.59 413.883 478.036 414.553 478.036H491.388C492.057 478.036 492.503 477.59 492.503 476.921V400.086C492.503 399.417 492.057 398.971 491.388 398.971H414.553V398.971Z" fill="#323C66" stroke="#E7EBF4" stroke-width="1"></path>
<path d="M615.063 480.266H538.228C536.333 480.266 534.883 478.817 534.883 476.921V400.086C534.883 398.19 536.333 396.74 538.228 396.74H615.063C616.959 396.74 618.409 398.19 618.409 400.086V476.921C618.409 478.705 616.959 480.266 615.063 480.266ZM538.228 398.971C537.559 398.971 537.113 399.417 537.113 400.086V476.921C537.113 477.59 537.559 478.036 538.228 478.036H615.063C615.733 478.036 616.179 477.59 616.179 476.921V400.086C616.179 399.417 615.733 398.971 615.063 398.971H538.228V398.971Z" fill="#323C66" stroke="#E7EBF4" stroke-width="1"></path>
<path d="M738.733 480.266H661.898C660.002 480.266 658.553 478.817 658.553 476.921V400.086C658.553 398.19 660.002 396.74 661.898 396.74H738.733C740.629 396.74 742.079 398.19 742.079 400.086V476.921C742.079 478.705 740.629 480.266 738.733 480.266ZM661.898 398.971C661.229 398.971 660.783 399.417 660.783 400.086V476.921C660.783 477.59 661.229 478.036 661.898 478.036H738.733C739.402 478.036 739.848 477.59 739.848 476.921V400.086C739.848 399.417 739.402 398.971 738.733 398.971H661.898V398.971Z" fill="#323C66" stroke="#E7EBF4" stroke-width="1"></path>
<path d="M81.9008 333.845C89.0451 333.845 94.8367 328.053 94.8367 320.909C94.8367 313.764 89.0451 307.973 81.9008 307.973C74.7565 307.973 68.9648 313.764 68.9648 320.909C68.9648 328.053 74.7565 333.845 81.9008 333.845Z" fill="#2563EB" stroke="#E7EBF4" stroke-width="1"></path>
<path d="M58.7051 363.841C58.7051 352.021 69.0761 341.538 81.9006 341.538C94.725 341.538 105.096 351.909 105.096 363.841H58.7051Z" fill="#2563EB" stroke="#E7EBF4" stroke-width="1"></path>
<path d="M742.748 279.981H161.969V296.932H742.748V279.981Z" fill="#2563EB" stroke="#E7EBF4" stroke-width="1"></path>
<path d="M743.863 366.073H160.854V308.977H743.863V366.073V366.073ZM163.084 363.843H741.633V311.207H163.084V363.843Z" fill="#323C66" stroke="#E7EBF4" stroke-width="1"></path>
<path d="M120.372 364.288H43.5369C41.6411 364.288 40.1914 362.838 40.1914 360.942V284.107C40.1914 282.211 41.6411 280.762 43.5369 280.762H120.372C122.268 280.762 123.717 282.211 123.717 284.107V360.942C123.717 362.727 122.156 364.288 120.372 364.288ZM43.5369 282.881C42.8678 282.881 42.4217 283.327 42.4217 283.996V360.831C42.4217 361.5 42.8678 361.946 43.5369 361.946H120.372C121.041 361.946 121.487 361.5 121.487 360.831V283.996C121.487 283.327 121.041 282.881 120.372 282.881H43.5369V282.881Z" fill="#323C66" stroke="#E7EBF4" stroke-width="1"></path>
<path d="M697.248 217.199H472.877C470.423 217.199 468.416 215.192 468.416 212.739V185.64C468.416 184.971 468.862 184.525 469.531 184.525C470.2 184.525 470.646 184.971 470.646 185.64V212.739C470.646 213.965 471.65 214.969 472.877 214.969H697.248C698.475 214.969 699.479 213.965 699.479 212.739V92.8581C699.479 91.6314 698.475 90.6278 697.248 90.6278H472.877C471.65 90.6278 470.646 91.6314 470.646 92.8581V159.991C470.646 160.66 470.2 161.106 469.531 161.106C468.862 161.106 468.416 160.66 468.416 159.991V92.8581C468.416 90.4048 470.423 88.3975 472.877 88.3975H697.248C699.702 88.3975 701.709 90.4048 701.709 92.8581V212.739C701.709 215.192 699.702 217.199 697.248 217.199Z" fill="#323C66" stroke="#E7EBF4" stroke-width="1"></path>
<path d="M585.064 167.462C580.045 167.462 575.139 166.235 570.678 163.782L454.924 100.664C454.366 100.329 454.143 99.6599 454.478 99.1023C454.812 98.5447 455.481 98.3217 456.039 98.6562L571.682 161.886C579.934 166.347 590.082 166.347 598.223 161.886L713.866 98.6562C714.423 98.3217 715.092 98.5447 715.427 99.1023C715.761 99.6599 715.538 100.329 714.981 100.664L599.449 163.894C594.989 166.235 589.97 167.462 585.064 167.462Z" fill="#323C66" stroke="#E7EBF4" stroke-width="1"></path>
<path d="M738.62 196.011H662.566C660.224 196.011 658.328 194.115 658.328 191.773V179.395C658.328 177.053 660.224 175.157 662.566 175.157H738.62C740.962 175.157 742.858 177.053 742.858 179.395V191.773C742.746 194.227 740.851 196.011 738.62 196.011Z" fill="#2563EB" stroke="#E7EBF4" stroke-width="1"></path>
<path d="M546.144 233.927H438.976C438.307 233.927 437.861 233.481 437.861 232.811C437.861 232.142 438.307 231.696 438.976 231.696H546.144C546.813 231.696 547.259 232.142 547.259 232.811C547.259 233.481 546.813 233.927 546.144 233.927Z" fill="#2563EB" stroke="#E7EBF4" stroke-width="1"></path>
<path d="M742.747 233.927H558.521C557.852 233.927 557.406 233.481 557.406 232.811C557.406 232.142 557.852 231.696 558.521 231.696H742.747C743.416 231.696 743.862 232.142 743.862 232.811C743.862 233.481 743.416 233.927 742.747 233.927Z" fill="#2563EB" stroke="#E7EBF4" stroke-width="1"></path>
<path d="M610.935 246.417H410.428C409.759 246.417 409.312 245.971 409.312 245.302C409.312 244.633 409.759 244.187 410.428 244.187H610.823C611.492 244.187 611.939 244.633 611.939 245.302C611.939 245.971 611.492 246.417 610.935 246.417Z" fill="#2563EB" stroke="#E7EBF4" stroke-width="1"></path>
<path d="M742.747 246.417H623.201C622.532 246.417 622.086 245.971 622.086 245.302C622.086 244.633 622.532 244.187 623.201 244.187H742.747C743.416 244.187 743.862 244.633 743.862 245.302C743.862 245.971 743.416 246.417 742.747 246.417Z" fill="#2563EB" stroke="#E7EBF4" stroke-width="1"></path>
<path d="M194.308 325.48L197.653 332.171C197.765 332.506 198.099 332.617 198.434 332.729L205.906 333.844C206.686 333.955 207.021 334.959 206.463 335.517L201.11 340.758C200.887 340.981 200.776 341.315 200.887 341.65L202.114 349.01C202.226 349.791 201.445 350.348 200.664 350.014L193.973 346.557C193.639 346.445 193.304 346.445 193.081 346.557L186.39 350.014C185.721 350.348 184.829 349.791 184.94 349.01L186.167 341.65C186.167 341.315 186.167 340.981 185.944 340.758L180.591 335.517C180.034 334.959 180.368 333.955 181.149 333.844L188.621 332.729C188.955 332.729 189.178 332.506 189.401 332.171L192.747 325.48C192.97 324.699 193.973 324.699 194.308 325.48Z" fill="#60A5FA" stroke="#E7EBF4" stroke-width="1"></path>
<path d="M727.47 329.496H225.533V345.443H727.47V329.496Z" fill="none" stroke="#E7EBF4" stroke-width="1"></path>
<path d="M194.532 93.4146H187.841C187.172 93.4146 186.726 92.9685 186.726 92.2994C186.726 91.6303 187.172 91.1842 187.841 91.1842H192.301V12.2303H35.9549V91.1842H105.318C105.987 91.1842 106.434 91.6303 106.434 92.2994C106.434 92.9685 105.987 93.4146 105.318 93.4146H33.7246V10H194.532V93.4146Z" fill="none" stroke="#E7EBF4" stroke-width="1"></path>
<path d="M177.915 30.0721H21.3456C20.6765 30.0721 20.2305 29.6261 20.2305 28.957C20.2305 28.2879 20.6765 27.8418 21.3456 27.8418H177.915C178.584 27.8418 179.03 28.2879 179.03 28.957C179.03 29.6261 178.584 30.0721 177.915 30.0721Z" fill="#323C66" stroke="#E7EBF4" stroke-width="1"></path>
<path d="M52.4614 21.8212C53.8779 21.8212 55.0263 20.6728 55.0263 19.2563C55.0263 17.8397 53.8779 16.6914 52.4614 16.6914C51.0448 16.6914 49.8965 17.8397 49.8965 19.2563C49.8965 20.6728 51.0448 21.8212 52.4614 21.8212Z" fill="#323C66" stroke="#E7EBF4" stroke-width="1"></path>
<path d="M60.936 21.8212C62.3525 21.8212 63.5009 20.6728 63.5009 19.2563C63.5009 17.8397 62.3525 16.6914 60.936 16.6914C59.5194 16.6914 58.3711 17.8397 58.3711 19.2563C58.3711 20.6728 59.5194 21.8212 60.936 21.8212Z" fill="#60A5FA" stroke="#E7EBF4" stroke-width="1"></path>
<path d="M69.4106 21.8212C70.8271 21.8212 71.9755 20.6728 71.9755 19.2563C71.9755 17.8397 70.8271 16.6914 69.4106 16.6914C67.994 16.6914 66.8457 17.8397 66.8457 19.2563C66.8457 20.6728 67.994 21.8212 69.4106 21.8212Z" fill="#2563EB" stroke="#E7EBF4" stroke-width="1"></path>
<path d="M176.8 261.805C176.8 265.82 173.566 269.054 169.551 269.054C165.537 269.054 162.303 265.82 162.303 261.805C162.303 257.79 165.537 254.557 169.551 254.557C173.566 254.445 176.8 257.679 176.8 261.805Z" fill="#2563EB" stroke="#E7EBF4" stroke-width="1"></path>
<path d="M199.775 261.805C199.775 265.82 196.541 269.054 192.526 269.054C188.511 269.054 185.277 265.82 185.277 261.805C185.277 257.79 188.511 254.557 192.526 254.557C196.541 254.445 199.775 257.679 199.775 261.805Z" fill="#60A5FA" stroke="#E7EBF4" stroke-width="1"></path>
<path d="M222.634 261.805C222.634 265.82 219.4 269.054 215.385 269.054C211.371 269.054 208.137 265.82 208.137 261.805C208.137 257.79 211.371 254.557 215.385 254.557C219.4 254.445 222.634 257.679 222.634 261.805Z" fill="#C1E755" stroke="#E7EBF4" stroke-width="1"></path>
<path d="M602.013 37.7683L580.714 59.068L559.414 37.7683C571.123 26.059 590.193 26.059 602.013 37.7683Z" fill="#60A5FA" stroke="#E7EBF4" stroke-width="1"></path>
<path d="M580.712 71.6688L553.837 44.7932C553.39 44.3472 553.39 43.6781 553.837 43.232C554.283 42.7859 554.952 42.7859 555.398 43.232L580.712 68.5463L605.023 44.2357C605.469 43.7896 606.138 43.7896 606.584 44.2357C607.03 44.6817 607.03 45.3508 606.584 45.7969L580.712 71.6688Z" fill="#323C66" stroke="#E7EBF4" stroke-width="1"></path>
<path d="M580.713 105.681C580.044 105.681 579.598 105.235 579.598 104.566V98.9902C579.598 98.3211 580.044 97.875 580.713 97.875C581.382 97.875 581.828 98.3211 581.828 98.9902V104.566C581.828 105.124 581.27 105.681 580.713 105.681ZM580.713 94.5295C580.044 94.5295 579.598 94.0835 579.598 93.4144V87.8385C579.598 87.1694 580.044 86.7234 580.713 86.7234C581.382 86.7234 581.828 87.1694 581.828 87.8385V93.4144C581.828 93.972 581.27 94.5295 580.713 94.5295ZM580.713 83.3779C580.044 83.3779 579.598 82.9318 579.598 82.2627V76.6868C579.598 76.0177 580.044 75.5717 580.713 75.5717C581.382 75.5717 581.828 76.0177 581.828 76.6868V82.2627C581.828 82.8203 581.27 83.3779 580.713 83.3779ZM580.713 72.2262C580.044 72.2262 579.598 71.7801 579.598 71.111V70.1074C579.598 69.4383 580.044 68.9922 580.713 68.9922C581.382 68.9922 581.828 69.4383 581.828 70.1074V71.111C581.828 71.6686 581.27 72.2262 580.713 72.2262Z" fill="#323C66" stroke="#E7EBF4" stroke-width="1"></path>
<path d="M492.28 558.997H371.73C371.061 558.997 370.615 558.551 370.615 557.882C370.615 557.213 371.061 556.767 371.73 556.767H492.28C492.949 556.767 493.395 557.213 493.395 557.882C493.395 558.551 492.949 558.997 492.28 558.997Z" fill="#323C66" stroke="#E7EBF4" stroke-width="1"></path>
<path d="M777.317 558.997H566.551C565.882 558.997 565.436 558.551 565.436 557.882C565.436 557.213 565.882 556.767 566.551 556.767H777.317C777.987 556.767 778.433 557.213 778.433 557.882C778.433 558.551 777.987 558.997 777.317 558.997Z" fill="#323C66" stroke="#E7EBF4" stroke-width="1"></path>
<path d="M142.008 510.041C141.339 510.041 140.893 509.595 140.893 508.926V507.253C140.893 506.584 141.339 506.138 142.008 506.138C142.677 506.138 143.123 506.584 143.123 507.253V508.926C143.123 509.484 142.677 510.041 142.008 510.041ZM142.008 502.793C141.339 502.793 140.893 502.347 140.893 501.678V496.102C140.893 495.433 141.339 494.987 142.008 494.987C142.677 494.987 143.123 495.433 143.123 496.102V501.678C143.123 502.235 142.677 502.793 142.008 502.793ZM142.008 491.641C141.339 491.641 140.893 491.195 140.893 490.526V484.95C140.893 484.281 141.339 483.835 142.008 483.835C142.677 483.835 143.123 484.281 143.123 484.95V490.526C143.123 491.084 142.677 491.641 142.008 491.641ZM142.008 480.489C141.339 480.489 140.893 480.043 140.893 479.374V473.798C140.893 473.129 141.339 472.683 142.008 472.683C142.677 472.683 143.123 473.129 143.123 473.798V479.374C143.123 479.932 142.677 480.489 142.008 480.489ZM142.008 469.338C141.339 469.338 140.893 468.892 140.893 468.223V462.647C140.893 461.978 141.339 461.532 142.008 461.532C142.677 461.532 143.123 461.978 143.123 462.647V468.223C143.123 468.78 142.677 469.338 142.008 469.338ZM142.008 458.186C141.339 458.186 140.893 457.74 140.893 457.071V451.495C140.893 450.826 141.339 450.38 142.008 450.38C142.677 450.38 143.123 450.826 143.123 451.495V457.071C143.123 457.628 142.677 458.186 142.008 458.186Z" fill="#323C66" stroke="#E7EBF4" stroke-width="1"></path>
<path d="M431.169 178.39C427.043 178.39 422.917 178.279 418.791 178.167C418.122 178.167 417.676 177.61 417.676 176.941C417.676 176.271 418.233 175.825 418.902 175.825C446.782 176.718 475.776 174.487 504.882 169.134C505.551 169.023 506.109 169.469 506.22 170.027C506.332 170.696 505.886 171.253 505.328 171.365C480.237 176.048 455.368 178.39 431.169 178.39Z" fill="#323C66" stroke="#E7EBF4" stroke-width="1"></path>
<path d="M418.791 178.167C418.791 178.167 418.68 178.167 418.791 178.167C416.896 178.055 415 178.055 413.216 177.944C412.546 177.944 412.1 177.386 412.1 176.829C412.1 176.16 412.658 175.714 413.216 175.714C415 175.825 416.896 175.825 418.791 175.937C419.461 175.937 419.907 176.494 419.907 177.052C419.795 177.721 419.349 178.167 418.791 178.167ZM407.64 177.609C407.64 177.609 407.528 177.609 407.64 177.609C405.632 177.498 403.848 177.386 401.952 177.163C401.283 177.163 400.837 176.606 400.949 175.937C400.949 175.267 401.506 174.821 402.175 174.933C403.96 175.044 405.855 175.156 407.751 175.379C408.42 175.379 408.866 175.937 408.755 176.606C408.643 177.163 408.197 177.609 407.64 177.609ZM396.488 176.717C394.481 176.494 392.585 176.383 390.801 176.16C390.243 176.048 389.797 175.49 389.797 174.933C389.909 174.375 390.466 173.929 391.024 173.929C392.808 174.152 394.704 174.375 396.6 174.487C397.157 174.598 397.715 175.044 397.603 175.714C397.603 176.271 397.046 176.717 396.488 176.717ZM385.448 175.49H385.336L383.887 175.267C382.548 175.044 381.099 174.933 379.761 174.71C379.203 174.598 378.757 174.041 378.868 173.483C378.98 172.926 379.537 172.48 380.095 172.591C381.433 172.814 382.771 172.926 384.221 173.149L385.671 173.372C386.228 173.483 386.675 174.041 386.675 174.598C386.452 175.044 386.005 175.49 385.448 175.49ZM374.408 173.929C374.296 173.929 374.296 173.929 374.185 173.929C372.289 173.595 370.505 173.372 368.72 173.037C368.163 172.926 367.717 172.368 367.828 171.699C367.94 171.03 368.497 170.695 369.166 170.807C370.951 171.141 372.735 171.476 374.631 171.699C375.188 171.81 375.634 172.368 375.523 172.926C375.411 173.483 374.965 173.929 374.408 173.929ZM363.368 172.033C363.256 172.033 363.256 172.033 363.144 172.033C361.249 171.699 359.464 171.364 357.68 170.918C357.123 170.807 356.677 170.249 356.788 169.58C356.9 169.023 357.457 168.576 358.126 168.688C359.911 169.023 361.695 169.469 363.591 169.803C364.148 169.915 364.594 170.472 364.483 171.141C364.371 171.587 363.925 172.033 363.368 172.033ZM352.439 169.692C352.327 169.692 352.327 169.692 352.216 169.692C350.32 169.246 348.536 168.911 346.752 168.465C346.194 168.353 345.748 167.684 345.971 167.127C346.082 166.569 346.752 166.123 347.309 166.346C349.093 166.792 350.878 167.127 352.773 167.573C353.331 167.684 353.777 168.353 353.666 168.911C353.443 169.357 352.996 169.692 352.439 169.692ZM341.622 167.238C341.51 167.238 341.399 167.238 341.399 167.238C339.503 166.792 337.719 166.346 335.934 165.9C335.377 165.789 334.931 165.119 335.154 164.562C335.265 164.004 335.934 163.558 336.492 163.781C338.276 164.227 340.061 164.673 341.845 165.119C342.402 165.231 342.848 165.9 342.625 166.458C342.625 166.904 342.179 167.238 341.622 167.238ZM330.805 164.45C330.693 164.45 330.582 164.45 330.47 164.45L325.117 163.001C324.56 162.889 324.114 162.22 324.337 161.662C324.448 161.105 325.117 160.659 325.675 160.882L331.028 162.331C331.585 162.443 332.031 163.112 331.808 163.67C331.808 164.116 331.362 164.45 330.805 164.45ZM319.988 161.662C319.876 161.662 319.764 161.662 319.764 161.662C317.98 161.216 316.196 160.77 314.412 160.324C313.854 160.213 313.408 159.544 313.631 158.986C313.743 158.428 314.412 157.982 314.969 158.205C316.754 158.651 318.538 159.098 320.434 159.544C320.991 159.655 321.437 160.324 321.214 160.882C320.991 161.328 320.545 161.662 319.988 161.662ZM309.17 159.098C309.059 159.098 309.059 159.098 308.947 159.098C307.052 158.651 305.267 158.317 303.483 157.982C302.925 157.871 302.479 157.313 302.591 156.644C302.702 156.087 303.26 155.64 303.929 155.752C305.713 156.087 307.498 156.421 309.393 156.867C309.951 156.979 310.397 157.648 310.286 158.205C310.174 158.763 309.728 159.098 309.17 159.098ZM298.242 156.979C298.242 156.979 298.13 156.979 298.019 156.979C296.123 156.644 294.339 156.421 292.554 156.31C291.997 156.198 291.551 155.64 291.551 155.083C291.551 154.525 292.108 154.079 292.777 154.079C294.562 154.302 296.457 154.525 298.353 154.86C298.911 154.971 299.357 155.529 299.245 156.087C299.245 156.644 298.799 156.979 298.242 156.979ZM270.474 156.198C269.916 156.198 269.47 155.752 269.359 155.194C269.247 154.637 269.693 154.079 270.363 153.968C272.258 153.745 274.154 153.633 275.938 153.522C276.496 153.522 277.054 153.968 277.054 154.525C277.054 155.194 276.607 155.64 276.05 155.64C274.266 155.752 272.37 155.864 270.586 156.087C270.586 156.198 270.474 156.198 270.474 156.198ZM287.202 155.864C287.202 155.864 287.09 155.864 287.202 155.864C285.306 155.752 283.41 155.64 281.626 155.64C280.957 155.64 280.511 155.083 280.511 154.525C280.511 153.856 281.068 153.41 281.626 153.41C283.522 153.41 285.417 153.522 287.202 153.633C287.871 153.633 288.317 154.191 288.205 154.86C288.205 155.417 287.759 155.864 287.202 155.864Z" fill="#323C66" stroke="#E7EBF4" stroke-width="1"></path>
<path d="M197.43 226.341C194.977 226.341 192.078 225.672 189.29 224.445C183.491 221.88 179.142 217.531 178.138 213.293C176.8 207.606 180.48 200.469 187.617 193.109C184.718 191.548 181.484 190.098 178.138 188.871C146.356 176.827 120.149 184.076 106.21 194.782C105.652 195.228 104.983 195.116 104.537 194.559C104.091 194.001 104.202 193.332 104.76 192.886C114.573 185.303 127.398 180.954 141.672 180.396C153.827 179.838 167.098 182.069 179.03 186.641C182.71 188.091 186.279 189.652 189.401 191.325C203.787 177.274 229.659 162.888 255.085 156.643C260.437 155.305 265.456 154.413 270.474 153.967C271.143 153.855 271.701 154.413 271.701 154.97C271.812 155.639 271.255 156.197 270.697 156.197C265.79 156.754 260.772 157.535 255.531 158.873C229.436 165.23 205.014 179.392 191.409 192.44C200.664 197.904 206.798 204.372 208.025 210.394C209.028 215.524 207.021 222.661 202.337 225.114C200.887 226.006 199.215 226.341 197.43 226.341ZM189.624 194.224C182.71 201.25 179.142 207.941 180.257 212.736C181.149 216.304 184.941 220.096 190.07 222.326C194.419 224.222 198.546 224.557 201.11 223.218C204.791 221.211 206.463 215.189 205.571 210.952C204.568 205.376 198.657 199.354 189.624 194.224Z" fill="#323C66" stroke="#E7EBF4" stroke-width="1"></path>
<path d="M81.8997 266.266C81.3421 266.266 80.896 265.82 80.7845 265.263C80.7845 265.04 80.45 262.921 80.2269 259.575C80.2269 258.906 80.673 258.46 81.2306 258.349C81.7882 258.349 82.3458 258.795 82.4573 259.352C82.6803 262.586 83.0149 264.594 83.0149 264.817C83.1264 265.374 82.6803 266.043 82.1227 266.043C82.0112 266.266 82.0112 266.266 81.8997 266.266ZM81.1191 255.226C80.5615 255.226 80.0039 254.78 80.0039 254.111C80.0039 253.665 80.0039 253.107 80.0039 252.55C80.0039 251.212 80.0039 249.762 80.1154 248.424C80.1154 247.755 80.673 247.308 81.2306 247.308C81.8997 247.308 82.3458 247.866 82.3458 248.424C82.3458 249.762 82.2342 251.1 82.2342 252.438C82.2342 252.996 82.2342 253.442 82.2342 253.999C82.3458 254.669 81.7882 255.226 81.1191 255.226C81.1191 255.226 81.2306 255.226 81.1191 255.226ZM81.5651 244.074C80.896 243.963 80.45 243.517 80.45 242.848C80.673 240.952 80.7845 239.056 81.1191 237.272C81.2306 236.714 81.7882 236.268 82.3458 236.38C82.9033 236.491 83.3494 237.049 83.2379 237.607C83.0149 239.391 82.7918 241.287 82.5688 243.071C82.6803 243.628 82.1227 244.074 81.5651 244.074ZM83.2379 233.034C83.1264 233.034 83.1264 233.034 83.0149 233.034C82.4573 232.923 82.0112 232.365 82.1227 231.696C82.4573 229.8 82.9033 228.016 83.4609 226.232C83.5724 225.674 84.2415 225.34 84.7991 225.451C85.3567 225.563 85.6913 226.232 85.5797 226.789C85.1337 228.574 84.6876 230.358 84.2415 232.142C84.13 232.7 83.684 233.034 83.2379 233.034ZM86.1373 222.329C86.0258 222.329 85.9143 222.329 85.8028 222.217C85.2452 221.994 84.9106 221.325 85.1337 220.767C85.8028 218.983 86.4719 217.199 87.2525 215.526C87.4755 214.969 88.1446 214.746 88.7022 214.969C89.2598 215.192 89.4828 215.861 89.2598 216.418C88.4792 218.091 87.8101 219.764 87.2525 221.548C87.0295 221.994 86.5834 222.329 86.1373 222.329ZM90.7095 212.069C90.4865 212.069 90.375 212.069 90.1519 211.958C89.5943 211.623 89.3713 210.954 89.7059 210.396C90.598 208.724 91.6017 207.051 92.7168 205.601C93.0514 205.044 93.7205 204.932 94.278 205.267C94.8356 205.601 94.9472 206.27 94.6126 206.828C93.609 208.278 92.6053 209.839 91.7132 211.512C91.4901 211.846 91.0441 212.069 90.7095 212.069ZM96.9545 202.925C96.7314 202.925 96.3969 202.813 96.2854 202.702C95.8393 202.256 95.7278 201.587 96.1738 201.141C97.4005 199.691 98.7387 198.241 100.077 197.014C100.523 196.568 101.192 196.568 101.638 197.014C102.084 197.46 102.084 198.13 101.638 198.576C100.3 199.802 99.0733 201.141 97.9581 202.59C97.6236 202.813 97.289 202.925 96.9545 202.925ZM104.984 195.23C104.649 195.23 104.315 195.119 104.092 194.784C103.757 194.338 103.757 193.557 104.315 193.223L104.649 193C105.095 192.665 105.876 192.665 106.21 193.223C106.545 193.669 106.545 194.338 106.099 194.784L105.764 195.007C105.43 195.119 105.207 195.23 104.984 195.23Z" fill="#323C66" stroke="#E7EBF4" stroke-width="1"></path>
<path d="M500.197 161.663L507 179.283L522.166 166.347L500.197 161.663Z" fill="#2563EB" stroke="#E7EBF4" stroke-width="1"></path>
<path d="M427.046 38.9936C427.046 54.2714 421.247 81.593 383.889 81.593C363.258 81.593 326.68 79.6973 298.132 75.4596C284.081 74.7905 261.22 75.0136 231.557 84.1579C238.248 69.2147 260.997 58.286 261.443 57.7285C260.886 47.2459 256.202 27.842 269.026 23.7158C280.512 20.0358 309.061 17.3594 324.896 17.3594C362.366 17.3594 427.046 23.8273 427.046 38.9936Z" fill="#60A5FA" stroke="#E7EBF4" stroke-width="1"></path>
<path d="M580.715 123.078C584.103 123.078 586.849 120.332 586.849 116.945C586.849 113.558 584.103 110.812 580.715 110.812C577.328 110.812 574.582 113.558 574.582 116.945C574.582 120.332 577.328 123.078 580.715 123.078Z" fill="#60A5FA" stroke="#E7EBF4" stroke-width="1"></path>
<path d="M34.3905 133.225C40.7342 133.225 45.8768 128.083 45.8768 121.739C45.8768 115.395 40.7342 110.253 34.3905 110.253C28.0469 110.253 22.9043 115.395 22.9043 121.739C22.9043 128.083 28.0469 133.225 34.3905 133.225Z" fill="#60A5FA" stroke="#E7EBF4" stroke-width="1"></path>
<path d="M28.259 135.791C21.4565 135.791 15.9922 130.326 15.9922 123.524C15.9922 116.721 21.4565 111.257 28.259 111.257C35.0616 111.257 40.5259 116.721 40.5259 123.524C40.5259 130.326 34.95 135.791 28.259 135.791ZM28.259 112.818C22.3486 112.818 17.5534 117.613 17.5534 123.524C17.5534 129.434 22.3486 134.229 28.259 134.229C34.1694 134.229 38.9646 129.434 38.9646 123.524C38.9646 117.613 34.1694 112.818 28.259 112.818Z" fill="#323C66" stroke="#E7EBF4" stroke-width="1"></path>
<path d="M347.644 222.105C340.841 222.105 335.377 216.641 335.377 209.838C335.377 203.036 340.841 197.571 347.644 197.571C354.446 197.571 359.911 203.036 359.911 209.838C359.911 216.641 354.335 222.105 347.644 222.105ZM347.644 199.133C341.733 199.133 336.938 203.928 336.938 209.838C336.938 215.749 341.733 220.544 347.644 220.544C353.554 220.544 358.349 215.749 358.349 209.838C358.349 203.928 353.554 199.133 347.644 199.133Z" fill="#323C66" stroke="#E7EBF4" stroke-width="1"></path>
<path d="M244.602 139.248L33.835 174.711C32.6084 174.934 31.4932 174.042 31.2702 172.927L28.1477 154.08C27.9247 152.853 28.8168 151.738 29.932 151.515L240.699 116.053C241.925 115.83 243.041 116.722 243.264 117.837L246.386 136.684C246.721 137.799 245.828 139.025 244.602 139.248Z" fill="#2563EB" stroke="#E7EBF4" stroke-width="1"></path>
<path d="M227.095 136.796C230.729 136.796 233.675 133.85 233.675 130.216C233.675 126.582 230.729 123.637 227.095 123.637C223.461 123.637 220.516 126.582 220.516 130.216C220.516 133.85 223.461 136.796 227.095 136.796Z" fill="none" stroke="#E7EBF4" stroke-width="1"></path>
<path d="M81.4507 152.854C80.8931 152.854 80.4471 152.52 80.3356 151.962C80.224 151.404 80.6701 150.735 81.2277 150.624L204.788 129.77C205.346 129.659 206.015 130.105 206.126 130.662C206.238 131.22 205.792 131.889 205.234 132L81.6738 152.854C81.5622 152.854 81.4507 152.854 81.4507 152.854Z" fill="none" stroke="#E7EBF4" stroke-width="1"></path>
<path d="M115.13 154.415C114.573 154.415 114.127 154.081 114.015 153.523C113.904 152.965 114.35 152.296 114.907 152.185L205.905 136.796C206.463 136.684 207.132 137.13 207.243 137.688C207.355 138.245 206.909 138.914 206.351 139.026L115.353 154.415C115.242 154.415 115.242 154.415 115.13 154.415Z" fill="none" stroke="#E7EBF4" stroke-width="1"></path>
<path d="M177.915 103.228H114.908C113.681 103.228 112.678 102.225 112.678 100.998V76.7987C112.678 75.572 113.681 74.5684 114.908 74.5684H177.915C179.142 74.5684 180.145 75.572 180.145 76.7987V100.998C180.257 102.225 179.142 103.228 177.915 103.228ZM114.908 76.7987V100.998H177.915V76.7987H114.908Z" fill="#323C66" stroke="#E7EBF4" stroke-width="1"></path>
<path d="M179.142 102.336C179.03 102.336 178.919 102.336 178.807 102.225L114.35 78.1369C113.793 77.9139 113.458 77.2448 113.681 76.6872C113.904 76.1296 114.573 75.7951 115.131 76.0181L179.476 100.106C180.034 100.329 180.368 100.998 180.145 101.555C179.922 102.002 179.588 102.336 179.142 102.336Z" fill="#323C66" stroke="#E7EBF4" stroke-width="1"></path>
<path d="M114.351 102.114C113.905 102.114 113.459 101.891 113.347 101.444C113.124 100.887 113.459 100.218 114.016 99.9947L178.473 75.1265C179.031 74.9035 179.7 75.238 179.923 75.7956C180.146 76.3532 179.811 77.0223 179.254 77.2453L114.797 102.114C114.685 102.114 114.574 102.114 114.351 102.114Z" fill="#323C66" stroke="#E7EBF4" stroke-width="1"></path>
<path d="M104.871 544.836H41.8642C40.972 544.836 40.1914 544.055 40.1914 543.163V518.964C40.1914 518.072 40.972 517.291 41.8642 517.291H104.871C105.763 517.291 106.544 518.072 106.544 518.964V543.163C106.655 544.167 105.875 544.836 104.871 544.836ZM41.8642 518.406C41.5296 518.406 41.3066 518.629 41.3066 518.964V543.163C41.3066 543.497 41.5296 543.721 41.8642 543.721H104.871C105.206 543.721 105.429 543.497 105.429 543.163V518.964C105.429 518.629 105.206 518.406 104.871 518.406H41.8642Z" fill="#60A5FA" stroke="#E7EBF4" stroke-width="1"></path>
<path d="M352.215 590H289.208C288.316 590 287.535 589.219 287.535 588.327V564.128C287.535 563.236 288.316 562.455 289.208 562.455H352.215C353.107 562.455 353.888 563.236 353.888 564.128V588.327C353.999 589.219 353.219 590 352.215 590ZM289.208 563.57C288.873 563.57 288.65 563.793 288.65 564.128V588.327C288.65 588.662 288.873 588.885 289.208 588.885H352.215C352.549 588.885 352.772 588.662 352.772 588.327V564.128C352.772 563.793 352.549 563.57 352.215 563.57H289.208V563.57Z" fill="#2563EB" stroke="#E7EBF4" stroke-width="1"></path>
<path d="M289.162 563.882L288.771 564.927L353.117 588.97L353.508 587.925L289.162 563.882Z" fill="#2563EB" stroke="#E7EBF4" stroke-width="1"></path>
<path d="M353.034 562.825L288.561 587.806L288.963 588.846L353.437 563.865L353.034 562.825Z" fill="#2563EB" stroke="#E7EBF4" stroke-width="1"></path>
<path d="M476.444 545.28H413.437C412.211 545.28 411.207 544.276 411.207 543.05V518.85C411.207 517.624 412.211 516.62 413.437 516.62H476.444C477.671 516.62 478.675 517.624 478.675 518.85V543.05C478.786 544.276 477.783 545.28 476.444 545.28ZM413.437 518.739V542.938H476.444V518.739H413.437Z" fill="none" stroke="#E7EBF4" stroke-width="1"></path>
<path d="M477.671 544.277C477.559 544.277 477.448 544.277 477.336 544.166L412.991 520.078C412.433 519.855 412.099 519.186 412.322 518.629C412.545 518.071 413.214 517.736 413.772 517.96L478.117 542.047C478.674 542.27 479.009 542.939 478.786 543.497C478.563 544.054 478.117 544.277 477.671 544.277Z" fill="none" stroke="#E7EBF4" stroke-width="1"></path>
<path d="M412.991 544.164C412.545 544.164 412.099 543.941 411.988 543.495C411.765 542.938 412.099 542.269 412.657 542.046L477.114 517.177C477.671 516.954 478.34 517.289 478.563 517.846C478.786 518.404 478.452 519.073 477.894 519.296L413.438 544.164C413.215 544.164 413.103 544.164 412.991 544.164Z" fill="none" stroke="#E7EBF4" stroke-width="1"></path>
<path d="M723.79 545.28H660.783C659.556 545.28 658.553 544.276 658.553 543.05V518.85C658.553 517.624 659.556 516.62 660.783 516.62H723.79C725.017 516.62 726.02 517.624 726.02 518.85V543.05C726.132 544.276 725.128 545.28 723.79 545.28ZM660.783 518.739V542.938H723.79V518.739H660.783Z" fill="none" stroke="#E7EBF4" stroke-width="1"></path>
<path d="M725.018 544.277C724.907 544.277 724.795 544.277 724.684 544.166L660.339 520.078C659.781 519.855 659.446 519.186 659.669 518.629C659.893 518.071 660.562 517.736 661.119 517.96L725.464 542.047C726.022 542.27 726.356 542.939 726.133 543.497C725.91 544.054 725.464 544.277 725.018 544.277Z" fill="none" stroke="#E7EBF4" stroke-width="1"></path>
<path d="M660.337 544.164C659.891 544.164 659.445 543.941 659.334 543.495C659.111 542.938 659.445 542.269 660.003 542.046L724.459 517.177C725.017 516.954 725.686 517.289 725.909 517.846C726.132 518.404 725.798 519.073 725.24 519.296L660.783 544.164C660.56 544.164 660.449 544.164 660.337 544.164Z" fill="none" stroke="#E7EBF4" stroke-width="1"></path>
<path d="M228.545 544.836H165.538C164.646 544.836 163.865 544.055 163.865 543.163V518.964C163.865 518.072 164.646 517.291 165.538 517.291H228.545C229.437 517.291 230.218 518.072 230.218 518.964V543.163C230.329 544.167 229.549 544.836 228.545 544.836ZM165.538 518.406C165.203 518.406 164.98 518.629 164.98 518.964V543.163C164.98 543.497 165.203 543.721 165.538 543.721H228.545C228.88 543.721 229.103 543.497 229.103 543.163V518.964C229.103 518.629 228.88 518.406 228.545 518.406H165.538Z" fill="#60A5FA" stroke="#E7EBF4" stroke-width="1"></path>
<path d="M104.871 590H41.8642C40.972 590 40.1914 589.219 40.1914 588.327V564.128C40.1914 563.236 40.972 562.455 41.8642 562.455H104.871C105.763 562.455 106.544 563.236 106.544 564.128V588.327C106.655 589.219 105.875 590 104.871 590ZM41.8642 563.57C41.5296 563.57 41.3066 563.793 41.3066 564.128V588.327C41.3066 588.662 41.5296 588.885 41.8642 588.885H104.871C105.206 588.885 105.429 588.662 105.429 588.327V564.128C105.429 563.793 105.206 563.57 104.871 563.57H41.8642V563.57Z" fill="#2563EB" stroke="#E7EBF4" stroke-width="1"></path>
<path d="M41.8239 563.864L41.4336 564.908L105.78 588.951L106.17 587.907L41.8239 563.864Z" fill="#2563EB" stroke="#E7EBF4" stroke-width="1"></path>
<path d="M105.684 562.83L41.2109 587.811L41.6138 588.85L106.087 563.87L105.684 562.83Z" fill="#2563EB" stroke="#E7EBF4" stroke-width="1"></path>
<path d="M169.886 56.1671H52.3477C47.2179 56.1671 43.0918 52.0409 43.0918 46.9112C43.0918 41.7814 47.2179 37.6553 52.3477 37.6553H169.886C175.016 37.6553 179.142 41.7814 179.142 46.9112C179.031 52.0409 174.905 56.1671 169.886 56.1671ZM52.3477 39.9971C48.5561 39.9971 45.3221 43.1196 45.3221 47.0227C45.3221 50.8143 48.4446 54.0482 52.3477 54.0482H169.886C173.678 54.0482 176.912 50.9258 176.912 47.0227C176.912 43.2311 173.789 39.9971 169.886 39.9971H52.3477V39.9971Z" fill="#323C66" stroke="#E7EBF4" stroke-width="1"></path>
<path d="M98.7407 75.6834H50.7885C47.2199 75.6834 44.209 72.6724 44.209 69.1039C44.209 65.5354 47.2199 62.5244 50.7885 62.5244H98.7407C102.309 62.5244 105.32 65.5354 105.32 69.1039C105.32 72.6724 102.421 75.6834 98.7407 75.6834Z" fill="none" stroke="#E7EBF4" stroke-width="1"></path>
<path d="M318.09 218.312H270.138C266.57 218.312 263.559 215.301 263.559 211.733C263.559 208.164 266.57 205.153 270.138 205.153H318.09C321.659 205.153 324.67 208.164 324.67 211.733C324.67 215.301 321.659 218.312 318.09 218.312Z" fill="none" stroke="#E7EBF4" stroke-width="1"></path>
<path d="M774.642 36.9864H657.215C652.085 36.9864 647.959 32.8603 647.959 27.7305C647.959 22.6007 652.085 18.4746 657.215 18.4746H774.754C779.883 18.4746 784.009 22.6007 784.009 27.7305C783.898 32.8603 779.772 36.9864 774.642 36.9864ZM657.215 20.8165C653.423 20.8165 650.189 23.9389 650.189 27.842C650.189 31.6336 653.312 34.8676 657.215 34.8676H774.754C778.545 34.8676 781.779 31.7451 781.779 27.842C781.779 24.0504 778.657 20.8165 774.754 20.8165H657.215Z" fill="#323C66" stroke="#E7EBF4" stroke-width="1"></path>
<path d="M776.204 56.5027H728.251C724.683 56.5027 721.672 53.4918 721.672 49.9232C721.672 46.3547 724.683 43.3438 728.251 43.3438H776.204C779.772 43.3438 782.783 46.3547 782.783 49.9232C782.783 53.6033 779.772 56.5027 776.204 56.5027Z" fill="none" stroke="#E7EBF4" stroke-width="1"></path>
<path d="M218.063 502.681H170.111C166.542 502.681 163.531 499.67 163.531 496.102C163.531 492.533 166.542 489.522 170.111 489.522H218.063C221.631 489.522 224.642 492.533 224.642 496.102C224.642 499.782 221.631 502.681 218.063 502.681Z" fill="none" stroke="#E7EBF4" stroke-width="1"></path>
<path d="M95.8383 502.681H47.8861C44.3176 502.681 41.3066 499.67 41.3066 496.102C41.3066 492.533 44.3176 489.522 47.8861 489.522H95.8383C99.4069 489.522 102.418 492.533 102.418 496.102C102.418 499.782 99.4069 502.681 95.8383 502.681Z" fill="none" stroke="#E7EBF4" stroke-width="1"></path>
<path d="M341.512 502.681H293.56C289.991 502.681 286.98 499.67 286.98 496.102C286.98 492.533 289.991 489.522 293.56 489.522H341.512C345.081 489.522 348.092 492.533 348.092 496.102C348.092 499.782 345.081 502.681 341.512 502.681Z" fill="none" stroke="#E7EBF4" stroke-width="1"></path>
<path d="M590.528 502.681H542.576C539.007 502.681 535.996 499.67 535.996 496.102C535.996 492.533 539.007 489.522 542.576 489.522H590.528C594.096 489.522 597.107 492.533 597.107 496.102C597.107 499.782 594.096 502.681 590.528 502.681Z" fill="none" stroke="#E7EBF4" stroke-width="1"></path>
<path d="M466.856 502.681H418.904C415.335 502.681 412.324 499.67 412.324 496.102C412.324 492.533 415.335 489.522 418.904 489.522H466.856C470.424 489.522 473.435 492.533 473.435 496.102C473.435 499.782 470.424 502.681 466.856 502.681Z" fill="none" stroke="#E7EBF4" stroke-width="1"></path>
<path d="M714.2 502.681H666.247C662.679 502.681 659.668 499.67 659.668 496.102C659.668 492.533 662.679 489.522 666.247 489.522H714.2C717.768 489.522 720.779 492.533 720.779 496.102C720.779 499.782 717.768 502.681 714.2 502.681Z" fill="none" stroke="#E7EBF4" stroke-width="1"></path>
<path d="M724.682 145.716L714.311 142.37L727.804 167.35L741.967 142.705L731.373 145.827L728.027 156.087L724.682 145.716Z" fill="#2563EB" stroke="#E7EBF4" stroke-width="1"></path>
<path d="M441.986 36.7642L440.09 44.1243L456.26 33.7532L438.863 25.501L441.763 32.192L448.677 34.1993L441.986 36.7642Z" fill="#2563EB" stroke="#E7EBF4" stroke-width="1"></path>
</svg>