<svg width="200" height="150" viewBox="0 0 800 600" fill="none" xmlns="http://www.w3.org/2000/svg">
<path d="M567.51 10H232.492V590H567.51V10Z" fill="#2563EB" stroke="#E7EBF4" stroke-width="1"></path>
<path fill-rule="evenodd" clip-rule="evenodd" d="M299.795 41.5571H500.208V50.5308C500.208 68.6073 515.035 83.4344 533.111 83.4344H542.085V516.151L533.226 516.265C514.739 516.502 500.208 531.114 500.208 549.468V558.442H299.795V549.468C299.795 531.392 284.968 516.565 266.892 516.565H257.918V83.4344H266.892C284.968 83.4344 299.795 68.6073 299.795 50.5308V41.5571ZM316.946 59.5045C313.205 80.331 296.692 96.8444 275.865 100.585V499.414C296.692 503.154 313.205 519.668 316.946 540.494H483.033C486.71 519.431 503.137 503.04 524.137 499.18V100.585C503.311 96.8444 486.798 80.331 483.057 59.5045H316.946Z" fill="#60A5FA" stroke="#E7EBF4" stroke-width="1"></path>
<path d="M266.89 66.5412C272.011 66.5412 276.163 62.3897 276.163 57.2684C276.163 52.1472 272.011 47.9956 266.89 47.9956C261.769 47.9956 257.617 52.1472 257.617 57.2684C257.617 62.3897 261.769 66.5412 266.89 66.5412Z" fill="#60A5FA" stroke="#E7EBF4" stroke-width="1"></path>
<path d="M266.894 555.607C272.015 555.607 276.167 551.456 276.167 546.334C276.167 541.213 272.015 537.062 266.894 537.062C261.773 537.062 257.621 541.213 257.621 546.334C257.621 551.456 261.773 555.607 266.894 555.607Z" fill="#60A5FA" stroke="#E7EBF4" stroke-width="1"></path>
<path d="M531.32 66.5412C536.441 66.5412 540.593 62.3897 540.593 57.2684C540.593 52.1472 536.441 47.9956 531.32 47.9956C526.198 47.9956 522.047 52.1472 522.047 57.2684C522.047 62.3897 526.198 66.5412 531.32 66.5412Z" fill="#60A5FA" stroke="#E7EBF4" stroke-width="1"></path>
<path d="M531.32 555.607C536.441 555.607 540.593 551.456 540.593 546.334C540.593 541.213 536.441 537.062 531.32 537.062C526.198 537.062 522.047 541.213 522.047 546.334C522.047 551.456 526.198 555.607 531.32 555.607Z" fill="#60A5FA" stroke="#E7EBF4" stroke-width="1"></path>
<path opacity="0.41" d="M461.627 164.35H338.389C335.098 164.35 332.406 161.658 332.406 158.367V147.3C332.406 144.009 335.098 141.317 338.389 141.317H461.627C464.918 141.317 467.61 144.009 467.61 147.3V158.367C467.61 161.658 464.918 164.35 461.627 164.35Z" fill="none" stroke="#E7EBF4" stroke-width="1"></path>
<path opacity="0.41" d="M461.328 266.65H338.389C335.098 266.65 332.406 263.958 332.406 260.668V256.48C332.406 253.19 335.098 250.498 338.389 250.498H461.328C464.619 250.498 467.311 253.19 467.311 256.48V260.668C467.61 263.958 464.619 266.65 461.328 266.65Z" fill="none" stroke="#E7EBF4" stroke-width="1"></path>
<path opacity="0.41" d="M461.328 295.068H338.389C335.098 295.068 332.406 292.376 332.406 289.085V284.898C332.406 281.607 335.098 278.915 338.389 278.915H461.328C464.619 278.915 467.311 281.607 467.311 284.898V289.085C467.61 292.376 464.619 295.068 461.328 295.068Z" fill="none" stroke="#E7EBF4" stroke-width="1"></path>
<path opacity="0.41" d="M461.328 323.485H338.389C335.098 323.485 332.406 320.793 332.406 317.503V313.315C332.406 310.025 335.098 307.333 338.389 307.333H461.328C464.619 307.333 467.311 310.025 467.311 313.315V317.503C467.61 320.793 464.619 323.485 461.328 323.485Z" fill="none" stroke="#E7EBF4" stroke-width="1"></path>
<path opacity="0.41" d="M461.328 351.899H338.389C335.098 351.899 332.406 349.207 332.406 345.916V341.729C332.406 338.438 335.098 335.746 338.389 335.746H461.328C464.619 335.746 467.311 338.438 467.311 341.729V345.916C467.61 349.207 464.619 351.899 461.328 351.899Z" fill="none" stroke="#E7EBF4" stroke-width="1"></path>
<path opacity="0.41" d="M435 187.684H364.706C362.911 187.684 361.715 186.488 361.715 184.693V177.514C361.715 175.719 362.911 174.523 364.706 174.523H435C436.795 174.523 437.991 175.719 437.991 177.514V184.693C437.991 186.488 436.795 187.684 435 187.684Z" fill="none" stroke="#E7EBF4" stroke-width="1"></path>
<path d="M491.533 426.376H443.374C440.682 426.376 438.289 424.282 438.289 421.291C438.289 418.599 440.383 416.206 443.374 416.206H491.533C494.225 416.206 496.618 418.3 496.618 421.291C496.618 424.282 494.225 426.376 491.533 426.376Z" fill="#60A5FA" stroke="#E7EBF4" stroke-width="1"></path>
<path opacity="0.41" d="M488.547 458.691H446.67C442.183 458.691 438.594 455.101 438.594 450.615V440.444C438.594 435.958 442.183 432.368 446.67 432.368H488.547C493.034 432.368 496.624 435.958 496.624 440.444V450.615C496.624 454.802 493.034 458.691 488.547 458.691Z" fill="none" stroke="#E7EBF4" stroke-width="1"></path>
<path opacity="0.41" d="M353.34 458.691H311.463C306.976 458.691 303.387 455.101 303.387 450.615V440.444C303.387 435.958 306.976 432.368 311.463 432.368H353.34C357.827 432.368 361.417 435.958 361.417 440.444V450.615C361.417 454.802 357.827 458.691 353.34 458.691Z" fill="none" stroke="#E7EBF4" stroke-width="1"></path>
<path d="M356.631 426.376H308.472C305.78 426.376 303.387 424.282 303.387 421.291C303.387 418.599 305.481 416.206 308.472 416.206H356.631C359.323 416.206 361.716 418.3 361.716 421.291C361.417 424.282 359.323 426.376 356.631 426.376Z" fill="#60A5FA" stroke="#E7EBF4" stroke-width="1"></path>
</svg>