<svg width="24" height="24" viewBox="0 0 24 24" fill="none" xmlns="http://www.w3.org/2000/svg">
<path stroke-linejoin="round" stroke-linecap="round" stroke-width="0" stroke="#E7EBF4" fill="#713141" d="M11.59 2C11.59 2 16.66 9.6 18.1 13.56C18.24 13.94 18.48 14.66 18.47 15.61C18.46 17.6 17.34 19.65 15.63 20.84C13.16 22.55 9.6 22.36 7.31 20.4C5.82 19.12 5.03 17.2 5 15.47C4.98 14.53 5.19 13.8 5.34 13.35C6.61 9.42 11.59 2 11.59 2Z" transform="translate(2,2)"></path><path stroke-linejoin="round" stroke-linecap="round" stroke-width="1" stroke="#E7EBF4" fill="none" d="M11.59 2C11.59 2 16.66 9.6 18.1 13.56C18.24 13.94 18.48 14.66 18.47 15.61C18.46 17.6 17.34 19.65 15.63 20.84C13.16 22.55 9.6 22.36 7.31 20.4C5.82 19.12 5.03 17.2 5 15.47C4.98 14.53 5.19 13.8 5.34 13.35C6.61 9.42 11.59 2 11.59 2Z"></path>
<path stroke-linejoin="round" stroke-linecap="round" stroke-width="1" stroke="#E7EBF4" d="M8.05 14.3C8.02 14.48 8 14.7 8 14.93C8.01 15.9 8.45 16.96 9.28 17.67C9.91 18.22 10.71 18.51 11.53 18.56"></path>
</svg>