<svg width="24" height="24" viewBox="0 0 24 24" fill="none" xmlns="http://www.w3.org/2000/svg">
<path stroke-linejoin="round" stroke-linecap="round" stroke-miterlimit="10" stroke-width="0" stroke="#E7EBF4" fill="#714134" d="M15.0749 8.45996L11.5849 14.05C11.2649 14.56 10.5749 14.67 10.1149 14.3L6.91493 11.74C6.43493 11.35 5.72493 11.49 5.41493 12.03L2.33493 17.51C1.94493 18.18 2.43493 19 3.19493 19H20.8049C21.5649 19 22.0449 18.19 21.6849 17.52L16.8049 8.50996C16.4349 7.83996 15.4849 7.80996 15.0749 8.45996Z" clip-rule="evenodd" fill-rule="evenodd" transform="translate(2,2)"></path><path stroke-linejoin="round" stroke-linecap="round" stroke-miterlimit="10" stroke-width="1" stroke="#E7EBF4" fill="none" d="M15.0749 8.45996L11.5849 14.05C11.2649 14.56 10.5749 14.67 10.1149 14.3L6.91493 11.74C6.43493 11.35 5.72493 11.49 5.41493 12.03L2.33493 17.51C1.94493 18.18 2.43493 19 3.19493 19H20.8049C21.5649 19 22.0449 18.19 21.6849 17.52L16.8049 8.50996C16.4349 7.83996 15.4849 7.80996 15.0749 8.45996Z" clip-rule="evenodd" fill-rule="evenodd"></path>
<path stroke-linejoin="round" stroke-linecap="round" stroke-miterlimit="10" stroke-width="0" stroke="#E7EBF4" fill="#714134" d="M8.98499 9C10.085 9 10.985 8.1 10.985 7C10.985 5.9 10.085 5 8.98499 5C7.88499 5 6.98499 5.9 6.98499 7C6.98499 8.1 7.88499 9 8.98499 9Z" transform="translate(2,2)"></path><path stroke-linejoin="round" stroke-linecap="round" stroke-miterlimit="10" stroke-width="1" stroke="#E7EBF4" fill="none" d="M8.98499 9C10.085 9 10.985 8.1 10.985 7C10.985 5.9 10.085 5 8.98499 5C7.88499 5 6.98499 5.9 6.98499 7C6.98499 8.1 7.88499 9 8.98499 9Z"></path>
</svg>