<svg width="24" height="24" viewBox="0 0 24 24" fill="none" xmlns="http://www.w3.org/2000/svg">
<path fill="#2D4476" d="M22 14V21C22 21.55 21.55 22 21 22H3C2.45 22 2 21.55 2 21V14" undefined="0" transform="translate(2,2)"></path><path fill="none" d="M22 14V21C22 21.55 21.55 22 21 22H3C2.45 22 2 21.55 2 21V14" undefined="1"></path>
<path stroke-linejoin="round" stroke-linecap="round" stroke-width="1" stroke="#E7EBF4" d="M22 14V21C22 21.55 21.55 22 21 22H3C2.45 22 2 21.55 2 21V14"></path>
<path stroke-linejoin="round" stroke-linecap="round" stroke-width="1" stroke="#E7EBF4" d="M12 2V17"></path>
<path stroke-linejoin="round" stroke-linecap="round" stroke-width="1" stroke="#E7EBF4" d="M17 12L12 17L7 12"></path>
</svg>