<svg width="24" height="24" viewBox="0 0 24 24" fill="none" xmlns="http://www.w3.org/2000/svg">
<path stroke-linejoin="round" stroke-linecap="round" stroke-width="0" stroke="#E7EBF4" fill="#714134" d="M14.5929 2L13.1786 3.41421L20.5861 10.8216L22.0003 9.40743L14.5929 2Z" transform="translate(2,2)"></path><path stroke-linejoin="round" stroke-linecap="round" stroke-width="1" stroke="#E7EBF4" fill="none" d="M14.5929 2L13.1786 3.41421L20.5861 10.8216L22.0003 9.40743L14.5929 2Z"></path>
<path stroke-linejoin="round" stroke-linecap="round" stroke-width="0" stroke="#E7EBF4" fill="#714134" d="M3.48149 14.5928L2 22.0002L9.40743 20.5187L3.48149 14.5928Z" clip-rule="evenodd" fill-rule="evenodd" transform="translate(2,2)"></path><path stroke-linejoin="round" stroke-linecap="round" stroke-width="1" stroke="#E7EBF4" fill="none" d="M3.48149 14.5928L2 22.0002L9.40743 20.5187L3.48149 14.5928Z" clip-rule="evenodd" fill-rule="evenodd"></path>
<path stroke-linejoin="round" stroke-linecap="round" stroke-width="0" stroke="#E7EBF4" fill="#714134" d="M13.1784 3.41431L3.48157 13.1111C3.07247 13.5202 3.07247 14.1835 3.48157 14.5926L9.40752 20.5186C9.81662 20.9277 10.4799 20.9277 10.889 20.5186L20.5858 10.8217L13.1784 3.41431Z" transform="translate(2,2)"></path><path stroke-linejoin="round" stroke-linecap="round" stroke-width="1" stroke="#E7EBF4" fill="none" d="M13.1784 3.41431L3.48157 13.1111C3.07247 13.5202 3.07247 14.1835 3.48157 14.5926L9.40752 20.5186C9.81662 20.9277 10.4799 20.9277 10.889 20.5186L20.5858 10.8217L13.1784 3.41431Z"></path>
<path stroke-linejoin="round" stroke-width="1" stroke="#E7EBF4" d="M10.1482 16.8149L16.0741 10.8889"></path>
<path stroke-linejoin="round" stroke-width="1" stroke="#E7EBF4" d="M7.18524 13.852L13.1112 7.92603"></path>
</svg>