<svg width="24" height="24" viewBox="0 0 24 24" fill="none" xmlns="http://www.w3.org/2000/svg">
<path stroke-linecap="round" stroke-miterlimit="10" stroke-width="0" stroke="#E7EBF4" fill="#713141" d="M19 7H5V3C5 2.45 5.45 2 6 2H18C18.55 2 19 2.45 19 3V7Z" clip-rule="evenodd" fill-rule="evenodd" transform="translate(2,2)"></path><path stroke-linecap="round" stroke-miterlimit="10" stroke-width="1" stroke="#E7EBF4" fill="none" d="M19 7H5V3C5 2.45 5.45 2 6 2H18C18.55 2 19 2.45 19 3V7Z" clip-rule="evenodd" fill-rule="evenodd"></path>
<path stroke-linecap="round" stroke-miterlimit="10" stroke-width="0" stroke="#E7EBF4" fill="#713141" d="M17 22H7C6.45 22 6 21.55 6 21V14H18V21C18 21.55 17.55 22 17 22Z" clip-rule="evenodd" fill-rule="evenodd" transform="translate(2,2)"></path><path stroke-linecap="round" stroke-miterlimit="10" stroke-width="1" stroke="#E7EBF4" fill="none" d="M17 22H7C6.45 22 6 21.55 6 21V14H18V21C18 21.55 17.55 22 17 22Z" clip-rule="evenodd" fill-rule="evenodd"></path>
<path stroke-linecap="round" stroke-miterlimit="10" stroke-width="0" stroke="#E7EBF4" fill="#713141" d="M18 17V14H6V17H3C2.45 17 2 16.55 2 16V8C2 7.45 2.45 7 3 7H21C21.55 7 22 7.45 22 8V16C22 16.55 21.55 17 21 17H18Z" clip-rule="evenodd" fill-rule="evenodd" transform="translate(2,2)"></path><path stroke-linecap="round" stroke-miterlimit="10" stroke-width="1" stroke="#E7EBF4" fill="none" d="M18 17V14H6V17H3C2.45 17 2 16.55 2 16V8C2 7.45 2.45 7 3 7H21C21.55 7 22 7.45 22 8V16C22 16.55 21.55 17 21 17H18Z" clip-rule="evenodd" fill-rule="evenodd"></path>
<path stroke-miterlimit="10" stroke-width="1" stroke="#E7EBF4" d="M4 10H7"></path>
</svg>