<svg width="24" height="24" viewBox="0 0 24 24" fill="none" xmlns="http://www.w3.org/2000/svg">
<path stroke-linejoin="round" stroke-linecap="round" stroke-width="0" stroke="#E7EBF4" fill="#155860" d="M20 22V2H4V22L6 20L8 22L10 20L12 22L14 20L16 22L18 20L20 22Z" transform="translate(2,2)"></path><path stroke-linejoin="round" stroke-linecap="round" stroke-width="1" stroke="#E7EBF4" fill="none" d="M20 22V2H4V22L6 20L8 22L10 20L12 22L14 20L16 22L18 20L20 22Z"></path>
<path stroke-linejoin="round" stroke-width="1" stroke="#E7EBF4" d="M7 16H17"></path>
<path stroke-linejoin="round" stroke-width="1" stroke="#E7EBF4" d="M7 12H12"></path>
<path stroke-linejoin="round" stroke-width="1" stroke="#E7EBF4" d="M7 6H12"></path>
<path stroke-linejoin="round" stroke-width="1" stroke="#E7EBF4" d="M14 6H17"></path>
<path stroke-linejoin="round" stroke-width="1" stroke="#E7EBF4" d="M14 9H17"></path>
<path stroke-linejoin="round" stroke-width="1" stroke="#E7EBF4" d="M14 12H17"></path>
<path stroke-linejoin="round" stroke-width="1" stroke="#E7EBF4" d="M7 9H12"></path>
</svg>