<svg width="24" height="24" viewBox="0 0 24 24" fill="none" xmlns="http://www.w3.org/2000/svg">
<path stroke-linejoin="round" stroke-linecap="round" stroke-width="1" stroke="#E7EBF4" d="M3 16L17 2"></path>
<path stroke-linejoin="round" stroke-linecap="round" stroke-width="0" stroke="#E7EBF4" fill="#2D4476" d="M22 17V21C22 21.55 21.55 22 21 22H3C2.45 22 2 21.55 2 21V17C2 16.45 2.45 16 3 16H21C21.55 16 22 16.45 22 17Z" transform="translate(2,2)"></path><path stroke-linejoin="round" stroke-linecap="round" stroke-width="1" stroke="#E7EBF4" fill="none" d="M22 17V21C22 21.55 21.55 22 21 22H3C2.45 22 2 21.55 2 21V17C2 16.45 2.45 16 3 16H21C21.55 16 22 16.45 22 17Z"></path>
<path stroke-linejoin="round" stroke-linecap="round" stroke-width="0" stroke="#E7EBF4" fill="#2D4476" d="M21 22H15C14.45 22 14 21.55 14 21V17C14 16.45 14.45 16 15 16H21C21.55 16 22 16.45 22 17V21C22 21.55 21.55 22 21 22Z" transform="translate(2,2)"></path><path stroke-linejoin="round" stroke-linecap="round" stroke-width="1" stroke="#E7EBF4" fill="none" d="M21 22H15C14.45 22 14 21.55 14 21V17C14 16.45 14.45 16 15 16H21C21.55 16 22 16.45 22 17V21C22 21.55 21.55 22 21 22Z"></path>
<path stroke-linejoin="round" stroke-linecap="round" stroke-width="1" stroke="#E7EBF4" d="M17 19H19"></path>
<path stroke-linejoin="round" stroke-linecap="round" stroke-miterlimit="10" stroke-width="1" stroke="#E7EBF4" d="M7.98999 19H7.99999"></path>
<path stroke-linejoin="round" stroke-linecap="round" stroke-miterlimit="10" stroke-width="1" stroke="#E7EBF4" d="M4.98999 19H4.99999"></path>
</svg>