<svg width="24" height="24" viewBox="0 0 24 24" fill="none" xmlns="http://www.w3.org/2000/svg">
<path stroke-linejoin="round" stroke-linecap="round" stroke-miterlimit="10" stroke-width="0" stroke="#E7EBF4" fill="#2D4476" d="M20.5 19H3.5C2.67 19 2 18.33 2 17.5V10H22V17.5C22 18.33 21.33 19 20.5 19Z" clip-rule="evenodd" fill-rule="evenodd" transform="translate(2,2)"></path><path stroke-linejoin="round" stroke-linecap="round" stroke-miterlimit="10" stroke-width="1" stroke="#E7EBF4" fill="none" d="M20.5 19H3.5C2.67 19 2 18.33 2 17.5V10H22V17.5C22 18.33 21.33 19 20.5 19Z" clip-rule="evenodd" fill-rule="evenodd"></path>
<path stroke-linejoin="round" stroke-linecap="round" stroke-miterlimit="10" stroke-width="0" stroke="#E7EBF4" fill="#2D4476" d="M22 10H2V6.5C2 5.67 2.67 5 3.5 5H20.5C21.33 5 22 5.67 22 6.5V10Z" clip-rule="evenodd" fill-rule="evenodd" transform="translate(2,2)"></path><path stroke-linejoin="round" stroke-linecap="round" stroke-miterlimit="10" stroke-width="1" stroke="#E7EBF4" fill="none" d="M22 10H2V6.5C2 5.67 2.67 5 3.5 5H20.5C21.33 5 22 5.67 22 6.5V10Z" clip-rule="evenodd" fill-rule="evenodd"></path>
<path stroke-linecap="round" stroke-miterlimit="10" stroke-width="1" stroke="#E7EBF4" d="M22 9H2V10H22V9Z"></path>
</svg>