<svg width="24" height="24" viewBox="0 0 24 24" fill="none" xmlns="http://www.w3.org/2000/svg">
<path stroke-linejoin="round" stroke-linecap="round" stroke-miterlimit="10" stroke-width="1" stroke="#E7EBF4" d="M2 15H8"></path>
<path stroke-linejoin="round" stroke-linecap="round" stroke-miterlimit="10" stroke-width="1" stroke="#E7EBF4" d="M18 15H22"></path>
<path stroke-linejoin="round" stroke-linecap="round" stroke-miterlimit="10" stroke-width="1" stroke="#E7EBF4" d="M20.5 12C20.1 8.49998 19.7 6.09998 19.1 6.09998C18.4 6.09998 18.4 9.49998 17.2 9.79998C15.3 10.2 12 1.89998 11.9 1.99998C11.8 2.09998 14.8 6.69998 14.9 12.5C15 17.7 12.9 22.1 12.2 22C11.2 21.8 12.4 10.3 11.3 10.1C10.8 9.99998 10.3 12.3 9.40002 12.2C8.80002 12.2 8.30002 10.9 7.90002 9.19998"></path>
<path stroke-linejoin="round" stroke-linecap="round" stroke-miterlimit="10" stroke-width="1" stroke="#E7EBF4" d="M2 9L5 12"></path>
<path stroke-linejoin="round" stroke-linecap="round" stroke-miterlimit="10" stroke-width="1" stroke="#E7EBF4" d="M5 9L2 12"></path>
</svg>