<svg width="24" height="24" viewBox="0 0 24 24" fill="none" xmlns="http://www.w3.org/2000/svg">
<path stroke-linejoin="round" stroke-linecap="round" stroke-width="0" stroke="#E7EBF4" fill="#713141" d="M14.29 7.36C14.49 6.56 15 5.72 15 4.9C15 4.04 14.62 3.27 14 2.74C13.47 2.28 12.77 2 12 2C11.23 2 10.53 2.28 10 2.74C9.38 3.27 9 4.04 9 4.9C9 5.72 9.51 6.56 9.71 7.36C9.95 8.36 10.08 9.38 10.09 10.4C10.09 12.09 9.6 14.08 9 15H15C14.4 14.08 13.91 12.09 13.91 10.4C13.92 9.38 14.05 8.36 14.29 7.36Z" transform="translate(2,2)"></path><path stroke-linejoin="round" stroke-linecap="round" stroke-width="1" stroke="#E7EBF4" fill="none" d="M14.29 7.36C14.49 6.56 15 5.72 15 4.9C15 4.04 14.62 3.27 14 2.74C13.47 2.28 12.77 2 12 2C11.23 2 10.53 2.28 10 2.74C9.38 3.27 9 4.04 9 4.9C9 5.72 9.51 6.56 9.71 7.36C9.95 8.36 10.08 9.38 10.09 10.4C10.09 12.09 9.6 14.08 9 15H15C14.4 14.08 13.91 12.09 13.91 10.4C13.92 9.38 14.05 8.36 14.29 7.36Z"></path>
<path stroke-linejoin="round" stroke-linecap="round" stroke-width="0" stroke="#E7EBF4" fill="#713141" d="M18 22H6C5.45 22 5 21.55 5 21V19H19V21C19 21.55 18.55 22 18 22Z" transform="translate(2,2)"></path><path stroke-linejoin="round" stroke-linecap="round" stroke-width="1" stroke="#E7EBF4" fill="none" d="M18 22H6C5.45 22 5 21.55 5 21V19H19V21C19 21.55 18.55 22 18 22Z"></path>
<path stroke-linejoin="round" stroke-linecap="round" stroke-width="0" stroke="#E7EBF4" fill="#713141" d="M21 19H3V17C3 15.9 3.9 15 5 15H19C20.1 15 21 15.9 21 17V19Z" transform="translate(2,2)"></path><path stroke-linejoin="round" stroke-linecap="round" stroke-width="1" stroke="#E7EBF4" fill="none" d="M21 19H3V17C3 15.9 3.9 15 5 15H19C20.1 15 21 15.9 21 17V19Z"></path>
</svg>