<svg width="24" height="24" viewBox="0 0 24 24" fill="none" xmlns="http://www.w3.org/2000/svg">
<path stroke-linejoin="round" stroke-linecap="round" stroke-width="1" stroke="#E7EBF4" d="M8 11V6C8 3.79 9.79 2 12 2C14.21 2 16 3.79 16 6V11"></path>
<path stroke-linejoin="round" stroke-linecap="round" stroke-width="0" stroke="#E7EBF4" fill="#2563EB" d="M6 11H18V16C18 19.31 15.31 22 12 22C8.69 22 6 19.31 6 16V11Z" transform="translate(2,2)"></path><path stroke-linejoin="round" stroke-linecap="round" stroke-width="1" stroke="#E7EBF4" fill="none" d="M6 11H18V16C18 19.31 15.31 22 12 22C8.69 22 6 19.31 6 16V11Z"></path>
<path stroke-linejoin="round" stroke-linecap="round" stroke-miterlimit="10" stroke-width="1" stroke="#E7EBF4" d="M12 17.75V16.25"></path>
<path stroke-linejoin="round" stroke-linecap="round" stroke-miterlimit="10" stroke-width="1" stroke="#E7EBF4" d="M12 16.25C12.2761 16.25 12.5 16.0261 12.5 15.75C12.5 15.4739 12.2761 15.25 12 15.25C11.7239 15.25 11.5 15.4739 11.5 15.75C11.5 16.0261 11.7239 16.25 12 16.25Z"></path>
</svg>