<svg width="24" height="24" viewBox="0 0 24 24" fill="none" xmlns="http://www.w3.org/2000/svg">
<path stroke-linejoin="round" stroke-linecap="round" stroke-miterlimit="10" stroke-width="0" stroke="#E7EBF4" fill="#2563EB" d="M13.4759 7.99264L1.99963 19.4689L4.52398 21.9932L16.0002 10.517L13.4759 7.99264Z" transform="translate(2,2)"></path><path stroke-linejoin="round" stroke-linecap="round" stroke-miterlimit="10" stroke-width="1" stroke="#E7EBF4" fill="none" d="M13.4759 7.99264L1.99963 19.4689L4.52398 21.9932L16.0002 10.517L13.4759 7.99264Z"></path>
<path stroke-linejoin="round" stroke-linecap="round" stroke-miterlimit="10" stroke-width="0" stroke="#E7EBF4" fill="#2563EB" d="M13.472 7.9999L10.6012 10.8707L13.1255 13.3951L15.9964 10.5242L13.472 7.9999Z" transform="translate(2,2)"></path><path stroke-linejoin="round" stroke-linecap="round" stroke-miterlimit="10" stroke-width="1" stroke="#E7EBF4" fill="none" d="M13.472 7.9999L10.6012 10.8707L13.1255 13.3951L15.9964 10.5242L13.472 7.9999Z"></path>
<path stroke-linejoin="round" stroke-linecap="round" stroke-miterlimit="10" stroke-width="0" stroke="#E7EBF4" fill="#2563EB" d="M21.41 2.59L20.73 4.6L22 6.3L19.88 6.27L18.65 8L18.03 5.97L16 5.35L17.73 4.12L17.7 2L19.4 3.27L21.41 2.59Z" transform="translate(2,2)"></path><path stroke-linejoin="round" stroke-linecap="round" stroke-miterlimit="10" stroke-width="1" stroke="#E7EBF4" fill="none" d="M21.41 2.59L20.73 4.6L22 6.3L19.88 6.27L18.65 8L18.03 5.97L16 5.35L17.73 4.12L17.7 2L19.4 3.27L21.41 2.59Z"></path>
<path stroke-linejoin="round" stroke-linecap="round" stroke-miterlimit="10" stroke-width="1" stroke="#E7EBF4" d="M10.5 6L11.5 2"></path>
<path stroke-linejoin="round" stroke-linecap="round" stroke-miterlimit="10" stroke-width="1" stroke="#E7EBF4" d="M9 3.5L13 4.5"></path>
<path stroke-linejoin="round" stroke-linecap="round" stroke-miterlimit="10" stroke-width="1" stroke="#E7EBF4" d="M18 13.5L22 12.5"></path>
<path stroke-linejoin="round" stroke-linecap="round" stroke-miterlimit="10" stroke-width="1" stroke="#E7EBF4" d="M19.5 11L20.5 15"></path>
</svg>